<?xml version="1.0" encoding="utf-8" standalone="no"?>
<!DOCTYPE svg PUBLIC "-//W3C//DTD SVG 1.1//EN"
  "http://www.w3.org/Graphics/SVG/1.1/DTD/svg11.dtd">
<svg xmlns:xlink="http://www.w3.org/1999/xlink" width="1333.44pt" height="345.6pt" viewBox="0 0 1333.44 345.6" xmlns="http://www.w3.org/2000/svg" version="1.1">
 <metadata>
  <rdf:RDF xmlns:dc="http://purl.org/dc/elements/1.1/" xmlns:cc="http://creativecommons.org/ns#" xmlns:rdf="http://www.w3.org/1999/02/22-rdf-syntax-ns#">
   <cc:Work>
    <dc:type rdf:resource="http://purl.org/dc/dcmitype/StillImage"/>
    <dc:date>2025-10-21T22:29:59.231640</dc:date>
    <dc:format>image/svg+xml</dc:format>
    <dc:creator>
     <cc:Agent>
      <dc:title>Matplotlib v3.10.7, https://matplotlib.org/</dc:title>
     </cc:Agent>
    </dc:creator>
   </cc:Work>
  </rdf:RDF>
 </metadata>
 <defs>
  <style type="text/css">*{stroke-linejoin: round; stroke-linecap: butt}</style>
 </defs>
 <g id="figure_1">
  <g id="patch_1">
   <path d="M 0 345.6 
L 1333.44 345.6 
L 1333.44 0 
L 0 0 
z
" style="fill: #ffffff"/>
  </g>
  <g id="axes_1">
   <g id="patch_2">
    <path d="M 518.733625 303.64 
L 1302.1875 303.64 
L 1302.1875 26.88 
L 518.733625 26.88 
z
" style="fill: #ffffff"/>
   </g>
   <g id="matplotlib.axis_1">
    <g id="xtick_1">
     <g id="line2d_1">
      <defs>
       <path id="m47be71eee0" d="M 0 0 
L 0 3.5 
" style="stroke: #000000; stroke-width: 0.8"/>
      </defs>
      <g>
       <use xlink:href="#m47be71eee0" x="534.66205" y="303.64" style="stroke: #000000; stroke-width: 0.8"/>
      </g>
     </g>
     <g id="text_1">
      <!-- 0.0 -->
      <g transform="translate(526.710488 318.238437) scale(0.1 -0.1)">
       <defs>
        <path id="DejaVuSans-30" d="M 2034 4250 
Q 1547 4250 1301 3770 
Q 1056 3291 1056 2328 
Q 1056 1369 1301 889 
Q 1547 409 2034 409 
Q 2525 409 2770 889 
Q 3016 1369 3016 2328 
Q 3016 3291 2770 3770 
Q 2525 4250 2034 4250 
z
M 2034 4750 
Q 2819 4750 3233 4129 
Q 3647 3509 3647 2328 
Q 3647 1150 3233 529 
Q 2819 -91 2034 -91 
Q 1250 -91 836 529 
Q 422 1150 422 2328 
Q 422 3509 836 4129 
Q 1250 4750 2034 4750 
z
" transform="scale(0.015625)"/>
        <path id="DejaVuSans-2e" d="M 684 794 
L 1344 794 
L 1344 0 
L 684 0 
L 684 794 
z
" transform="scale(0.015625)"/>
       </defs>
       <use xlink:href="#DejaVuSans-30"/>
       <use xlink:href="#DejaVuSans-2e" transform="translate(63.623047 0)"/>
       <use xlink:href="#DejaVuSans-30" transform="translate(95.410156 0)"/>
      </g>
     </g>
    </g>
    <g id="xtick_2">
     <g id="line2d_2">
      <g>
       <use xlink:href="#m47be71eee0" x="707.530877" y="303.64" style="stroke: #000000; stroke-width: 0.8"/>
      </g>
     </g>
     <g id="text_2">
      <!-- 0.2 -->
      <g transform="translate(699.579314 318.238437) scale(0.1 -0.1)">
       <defs>
        <path id="DejaVuSans-32" d="M 1228 531 
L 3431 531 
L 3431 0 
L 469 0 
L 469 531 
Q 828 903 1448 1529 
Q 2069 2156 2228 2338 
Q 2531 2678 2651 2914 
Q 2772 3150 2772 3378 
Q 2772 3750 2511 3984 
Q 2250 4219 1831 4219 
Q 1534 4219 1204 4116 
Q 875 4013 500 3803 
L 500 4441 
Q 881 4594 1212 4672 
Q 1544 4750 1819 4750 
Q 2544 4750 2975 4387 
Q 3406 4025 3406 3419 
Q 3406 3131 3298 2873 
Q 3191 2616 2906 2266 
Q 2828 2175 2409 1742 
Q 1991 1309 1228 531 
z
" transform="scale(0.015625)"/>
       </defs>
       <use xlink:href="#DejaVuSans-30"/>
       <use xlink:href="#DejaVuSans-2e" transform="translate(63.623047 0)"/>
       <use xlink:href="#DejaVuSans-32" transform="translate(95.410156 0)"/>
      </g>
     </g>
    </g>
    <g id="xtick_3">
     <g id="line2d_3">
      <g>
       <use xlink:href="#m47be71eee0" x="880.399703" y="303.64" style="stroke: #000000; stroke-width: 0.8"/>
      </g>
     </g>
     <g id="text_3">
      <!-- 0.4 -->
      <g transform="translate(872.44814 318.238437) scale(0.1 -0.1)">
       <defs>
        <path id="DejaVuSans-34" d="M 2419 4116 
L 825 1625 
L 2419 1625 
L 2419 4116 
z
M 2253 4666 
L 3047 4666 
L 3047 1625 
L 3713 1625 
L 3713 1100 
L 3047 1100 
L 3047 0 
L 2419 0 
L 2419 1100 
L 313 1100 
L 313 1709 
L 2253 4666 
z
" transform="scale(0.015625)"/>
       </defs>
       <use xlink:href="#DejaVuSans-30"/>
       <use xlink:href="#DejaVuSans-2e" transform="translate(63.623047 0)"/>
       <use xlink:href="#DejaVuSans-34" transform="translate(95.410156 0)"/>
      </g>
     </g>
    </g>
    <g id="xtick_4">
     <g id="line2d_4">
      <g>
       <use xlink:href="#m47be71eee0" x="1053.268529" y="303.64" style="stroke: #000000; stroke-width: 0.8"/>
      </g>
     </g>
     <g id="text_4">
      <!-- 0.6 -->
      <g transform="translate(1045.316966 318.238437) scale(0.1 -0.1)">
       <defs>
        <path id="DejaVuSans-36" d="M 2113 2584 
Q 1688 2584 1439 2293 
Q 1191 2003 1191 1497 
Q 1191 994 1439 701 
Q 1688 409 2113 409 
Q 2538 409 2786 701 
Q 3034 994 3034 1497 
Q 3034 2003 2786 2293 
Q 2538 2584 2113 2584 
z
M 3366 4563 
L 3366 3988 
Q 3128 4100 2886 4159 
Q 2644 4219 2406 4219 
Q 1781 4219 1451 3797 
Q 1122 3375 1075 2522 
Q 1259 2794 1537 2939 
Q 1816 3084 2150 3084 
Q 2853 3084 3261 2657 
Q 3669 2231 3669 1497 
Q 3669 778 3244 343 
Q 2819 -91 2113 -91 
Q 1303 -91 875 529 
Q 447 1150 447 2328 
Q 447 3434 972 4092 
Q 1497 4750 2381 4750 
Q 2619 4750 2861 4703 
Q 3103 4656 3366 4563 
z
" transform="scale(0.015625)"/>
       </defs>
       <use xlink:href="#DejaVuSans-30"/>
       <use xlink:href="#DejaVuSans-2e" transform="translate(63.623047 0)"/>
       <use xlink:href="#DejaVuSans-36" transform="translate(95.410156 0)"/>
      </g>
     </g>
    </g>
    <g id="xtick_5">
     <g id="line2d_5">
      <g>
       <use xlink:href="#m47be71eee0" x="1226.137355" y="303.64" style="stroke: #000000; stroke-width: 0.8"/>
      </g>
     </g>
     <g id="text_5">
      <!-- 0.8 -->
      <g transform="translate(1218.185792 318.238437) scale(0.1 -0.1)">
       <defs>
        <path id="DejaVuSans-38" d="M 2034 2216 
Q 1584 2216 1326 1975 
Q 1069 1734 1069 1313 
Q 1069 891 1326 650 
Q 1584 409 2034 409 
Q 2484 409 2743 651 
Q 3003 894 3003 1313 
Q 3003 1734 2745 1975 
Q 2488 2216 2034 2216 
z
M 1403 2484 
Q 997 2584 770 2862 
Q 544 3141 544 3541 
Q 544 4100 942 4425 
Q 1341 4750 2034 4750 
Q 2731 4750 3128 4425 
Q 3525 4100 3525 3541 
Q 3525 3141 3298 2862 
Q 3072 2584 2669 2484 
Q 3125 2378 3379 2068 
Q 3634 1759 3634 1313 
Q 3634 634 3220 271 
Q 2806 -91 2034 -91 
Q 1263 -91 848 271 
Q 434 634 434 1313 
Q 434 1759 690 2068 
Q 947 2378 1403 2484 
z
M 1172 3481 
Q 1172 3119 1398 2916 
Q 1625 2713 2034 2713 
Q 2441 2713 2670 2916 
Q 2900 3119 2900 3481 
Q 2900 3844 2670 4047 
Q 2441 4250 2034 4250 
Q 1625 4250 1398 4047 
Q 1172 3844 1172 3481 
z
" transform="scale(0.015625)"/>
       </defs>
       <use xlink:href="#DejaVuSans-30"/>
       <use xlink:href="#DejaVuSans-2e" transform="translate(63.623047 0)"/>
       <use xlink:href="#DejaVuSans-38" transform="translate(95.410156 0)"/>
      </g>
     </g>
    </g>
    <g id="text_6">
     <!-- Seconds -->
     <g transform="translate(889.453531 331.916562) scale(0.1 -0.1)">
      <defs>
       <path id="DejaVuSans-53" d="M 3425 4513 
L 3425 3897 
Q 3066 4069 2747 4153 
Q 2428 4238 2131 4238 
Q 1616 4238 1336 4038 
Q 1056 3838 1056 3469 
Q 1056 3159 1242 3001 
Q 1428 2844 1947 2747 
L 2328 2669 
Q 3034 2534 3370 2195 
Q 3706 1856 3706 1288 
Q 3706 609 3251 259 
Q 2797 -91 1919 -91 
Q 1588 -91 1214 -16 
Q 841 59 441 206 
L 441 856 
Q 825 641 1194 531 
Q 1563 422 1919 422 
Q 2459 422 2753 634 
Q 3047 847 3047 1241 
Q 3047 1584 2836 1778 
Q 2625 1972 2144 2069 
L 1759 2144 
Q 1053 2284 737 2584 
Q 422 2884 422 3419 
Q 422 4038 858 4394 
Q 1294 4750 2059 4750 
Q 2388 4750 2728 4690 
Q 3069 4631 3425 4513 
z
" transform="scale(0.015625)"/>
       <path id="DejaVuSans-65" d="M 3597 1894 
L 3597 1613 
L 953 1613 
Q 991 1019 1311 708 
Q 1631 397 2203 397 
Q 2534 397 2845 478 
Q 3156 559 3463 722 
L 3463 178 
Q 3153 47 2828 -22 
Q 2503 -91 2169 -91 
Q 1331 -91 842 396 
Q 353 884 353 1716 
Q 353 2575 817 3079 
Q 1281 3584 2069 3584 
Q 2775 3584 3186 3129 
Q 3597 2675 3597 1894 
z
M 3022 2063 
Q 3016 2534 2758 2815 
Q 2500 3097 2075 3097 
Q 1594 3097 1305 2825 
Q 1016 2553 972 2059 
L 3022 2063 
z
" transform="scale(0.015625)"/>
       <path id="DejaVuSans-63" d="M 3122 3366 
L 3122 2828 
Q 2878 2963 2633 3030 
Q 2388 3097 2138 3097 
Q 1578 3097 1268 2742 
Q 959 2388 959 1747 
Q 959 1106 1268 751 
Q 1578 397 2138 397 
Q 2388 397 2633 464 
Q 2878 531 3122 666 
L 3122 134 
Q 2881 22 2623 -34 
Q 2366 -91 2075 -91 
Q 1284 -91 818 406 
Q 353 903 353 1747 
Q 353 2603 823 3093 
Q 1294 3584 2113 3584 
Q 2378 3584 2631 3529 
Q 2884 3475 3122 3366 
z
" transform="scale(0.015625)"/>
       <path id="DejaVuSans-6f" d="M 1959 3097 
Q 1497 3097 1228 2736 
Q 959 2375 959 1747 
Q 959 1119 1226 758 
Q 1494 397 1959 397 
Q 2419 397 2687 759 
Q 2956 1122 2956 1747 
Q 2956 2369 2687 2733 
Q 2419 3097 1959 3097 
z
M 1959 3584 
Q 2709 3584 3137 3096 
Q 3566 2609 3566 1747 
Q 3566 888 3137 398 
Q 2709 -91 1959 -91 
Q 1206 -91 779 398 
Q 353 888 353 1747 
Q 353 2609 779 3096 
Q 1206 3584 1959 3584 
z
" transform="scale(0.015625)"/>
       <path id="DejaVuSans-6e" d="M 3513 2113 
L 3513 0 
L 2938 0 
L 2938 2094 
Q 2938 2591 2744 2837 
Q 2550 3084 2163 3084 
Q 1697 3084 1428 2787 
Q 1159 2491 1159 1978 
L 1159 0 
L 581 0 
L 581 3500 
L 1159 3500 
L 1159 2956 
Q 1366 3272 1645 3428 
Q 1925 3584 2291 3584 
Q 2894 3584 3203 3211 
Q 3513 2838 3513 2113 
z
" transform="scale(0.015625)"/>
       <path id="DejaVuSans-64" d="M 2906 2969 
L 2906 4863 
L 3481 4863 
L 3481 0 
L 2906 0 
L 2906 525 
Q 2725 213 2448 61 
Q 2172 -91 1784 -91 
Q 1150 -91 751 415 
Q 353 922 353 1747 
Q 353 2572 751 3078 
Q 1150 3584 1784 3584 
Q 2172 3584 2448 3432 
Q 2725 3281 2906 2969 
z
M 947 1747 
Q 947 1113 1208 752 
Q 1469 391 1925 391 
Q 2381 391 2643 752 
Q 2906 1113 2906 1747 
Q 2906 2381 2643 2742 
Q 2381 3103 1925 3103 
Q 1469 3103 1208 2742 
Q 947 2381 947 1747 
z
" transform="scale(0.015625)"/>
       <path id="DejaVuSans-73" d="M 2834 3397 
L 2834 2853 
Q 2591 2978 2328 3040 
Q 2066 3103 1784 3103 
Q 1356 3103 1142 2972 
Q 928 2841 928 2578 
Q 928 2378 1081 2264 
Q 1234 2150 1697 2047 
L 1894 2003 
Q 2506 1872 2764 1633 
Q 3022 1394 3022 966 
Q 3022 478 2636 193 
Q 2250 -91 1575 -91 
Q 1294 -91 989 -36 
Q 684 19 347 128 
L 347 722 
Q 666 556 975 473 
Q 1284 391 1588 391 
Q 1994 391 2212 530 
Q 2431 669 2431 922 
Q 2431 1156 2273 1281 
Q 2116 1406 1581 1522 
L 1381 1569 
Q 847 1681 609 1914 
Q 372 2147 372 2553 
Q 372 3047 722 3315 
Q 1072 3584 1716 3584 
Q 2034 3584 2315 3537 
Q 2597 3491 2834 3397 
z
" transform="scale(0.015625)"/>
      </defs>
      <use xlink:href="#DejaVuSans-53"/>
      <use xlink:href="#DejaVuSans-65" transform="translate(63.476562 0)"/>
      <use xlink:href="#DejaVuSans-63" transform="translate(125 0)"/>
      <use xlink:href="#DejaVuSans-6f" transform="translate(179.980469 0)"/>
      <use xlink:href="#DejaVuSans-6e" transform="translate(241.162109 0)"/>
      <use xlink:href="#DejaVuSans-64" transform="translate(304.541016 0)"/>
      <use xlink:href="#DejaVuSans-73" transform="translate(368.017578 0)"/>
     </g>
    </g>
   </g>
   <g id="matplotlib.axis_2">
    <g id="ytick_1">
     <g id="line2d_6">
      <defs>
       <path id="mc262129237" d="M 0 0 
L -3.5 0 
" style="stroke: #000000; stroke-width: 0.8"/>
      </defs>
      <g>
       <use xlink:href="#mc262129237" x="518.733625" y="269.045" style="stroke: #000000; stroke-width: 0.8"/>
      </g>
     </g>
     <g id="text_7">
      <!-- Prey detected -->
      <g transform="translate(442.247688 272.844219) scale(0.1 -0.1)">
       <defs>
        <path id="DejaVuSans-50" d="M 1259 4147 
L 1259 2394 
L 2053 2394 
Q 2494 2394 2734 2622 
Q 2975 2850 2975 3272 
Q 2975 3691 2734 3919 
Q 2494 4147 2053 4147 
L 1259 4147 
z
M 628 4666 
L 2053 4666 
Q 2838 4666 3239 4311 
Q 3641 3956 3641 3272 
Q 3641 2581 3239 2228 
Q 2838 1875 2053 1875 
L 1259 1875 
L 1259 0 
L 628 0 
L 628 4666 
z
" transform="scale(0.015625)"/>
        <path id="DejaVuSans-72" d="M 2631 2963 
Q 2534 3019 2420 3045 
Q 2306 3072 2169 3072 
Q 1681 3072 1420 2755 
Q 1159 2438 1159 1844 
L 1159 0 
L 581 0 
L 581 3500 
L 1159 3500 
L 1159 2956 
Q 1341 3275 1631 3429 
Q 1922 3584 2338 3584 
Q 2397 3584 2469 3576 
Q 2541 3569 2628 3553 
L 2631 2963 
z
" transform="scale(0.015625)"/>
        <path id="DejaVuSans-79" d="M 2059 -325 
Q 1816 -950 1584 -1140 
Q 1353 -1331 966 -1331 
L 506 -1331 
L 506 -850 
L 844 -850 
Q 1081 -850 1212 -737 
Q 1344 -625 1503 -206 
L 1606 56 
L 191 3500 
L 800 3500 
L 1894 763 
L 2988 3500 
L 3597 3500 
L 2059 -325 
z
" transform="scale(0.015625)"/>
        <path id="DejaVuSans-20" transform="scale(0.015625)"/>
        <path id="DejaVuSans-74" d="M 1172 4494 
L 1172 3500 
L 2356 3500 
L 2356 3053 
L 1172 3053 
L 1172 1153 
Q 1172 725 1289 603 
Q 1406 481 1766 481 
L 2356 481 
L 2356 0 
L 1766 0 
Q 1100 0 847 248 
Q 594 497 594 1153 
L 594 3053 
L 172 3053 
L 172 3500 
L 594 3500 
L 594 4494 
L 1172 4494 
z
" transform="scale(0.015625)"/>
       </defs>
       <use xlink:href="#DejaVuSans-50"/>
       <use xlink:href="#DejaVuSans-72" transform="translate(58.552734 0)"/>
       <use xlink:href="#DejaVuSans-65" transform="translate(97.416016 0)"/>
       <use xlink:href="#DejaVuSans-79" transform="translate(158.939453 0)"/>
       <use xlink:href="#DejaVuSans-20" transform="translate(218.119141 0)"/>
       <use xlink:href="#DejaVuSans-64" transform="translate(249.90625 0)"/>
       <use xlink:href="#DejaVuSans-65" transform="translate(313.382812 0)"/>
       <use xlink:href="#DejaVuSans-74" transform="translate(374.90625 0)"/>
       <use xlink:href="#DejaVuSans-65" transform="translate(414.115234 0)"/>
       <use xlink:href="#DejaVuSans-63" transform="translate(475.638672 0)"/>
       <use xlink:href="#DejaVuSans-74" transform="translate(530.619141 0)"/>
       <use xlink:href="#DejaVuSans-65" transform="translate(569.828125 0)"/>
       <use xlink:href="#DejaVuSans-64" transform="translate(631.351562 0)"/>
      </g>
     </g>
    </g>
    <g id="ytick_2">
     <g id="line2d_7">
      <g>
       <use xlink:href="#mc262129237" x="518.733625" y="199.855" style="stroke: #000000; stroke-width: 0.8"/>
      </g>
     </g>
     <g id="text_8">
      <!-- Robot with Load detected -->
      <g transform="translate(383.493 203.654219) scale(0.1 -0.1)">
       <defs>
        <path id="DejaVuSans-52" d="M 2841 2188 
Q 3044 2119 3236 1894 
Q 3428 1669 3622 1275 
L 4263 0 
L 3584 0 
L 2988 1197 
Q 2756 1666 2539 1819 
Q 2322 1972 1947 1972 
L 1259 1972 
L 1259 0 
L 628 0 
L 628 4666 
L 2053 4666 
Q 2853 4666 3247 4331 
Q 3641 3997 3641 3322 
Q 3641 2881 3436 2590 
Q 3231 2300 2841 2188 
z
M 1259 4147 
L 1259 2491 
L 2053 2491 
Q 2509 2491 2742 2702 
Q 2975 2913 2975 3322 
Q 2975 3731 2742 3939 
Q 2509 4147 2053 4147 
L 1259 4147 
z
" transform="scale(0.015625)"/>
        <path id="DejaVuSans-62" d="M 3116 1747 
Q 3116 2381 2855 2742 
Q 2594 3103 2138 3103 
Q 1681 3103 1420 2742 
Q 1159 2381 1159 1747 
Q 1159 1113 1420 752 
Q 1681 391 2138 391 
Q 2594 391 2855 752 
Q 3116 1113 3116 1747 
z
M 1159 2969 
Q 1341 3281 1617 3432 
Q 1894 3584 2278 3584 
Q 2916 3584 3314 3078 
Q 3713 2572 3713 1747 
Q 3713 922 3314 415 
Q 2916 -91 2278 -91 
Q 1894 -91 1617 61 
Q 1341 213 1159 525 
L 1159 0 
L 581 0 
L 581 4863 
L 1159 4863 
L 1159 2969 
z
" transform="scale(0.015625)"/>
        <path id="DejaVuSans-77" d="M 269 3500 
L 844 3500 
L 1563 769 
L 2278 3500 
L 2956 3500 
L 3675 769 
L 4391 3500 
L 4966 3500 
L 4050 0 
L 3372 0 
L 2619 2869 
L 1863 0 
L 1184 0 
L 269 3500 
z
" transform="scale(0.015625)"/>
        <path id="DejaVuSans-69" d="M 603 3500 
L 1178 3500 
L 1178 0 
L 603 0 
L 603 3500 
z
M 603 4863 
L 1178 4863 
L 1178 4134 
L 603 4134 
L 603 4863 
z
" transform="scale(0.015625)"/>
        <path id="DejaVuSans-68" d="M 3513 2113 
L 3513 0 
L 2938 0 
L 2938 2094 
Q 2938 2591 2744 2837 
Q 2550 3084 2163 3084 
Q 1697 3084 1428 2787 
Q 1159 2491 1159 1978 
L 1159 0 
L 581 0 
L 581 4863 
L 1159 4863 
L 1159 2956 
Q 1366 3272 1645 3428 
Q 1925 3584 2291 3584 
Q 2894 3584 3203 3211 
Q 3513 2838 3513 2113 
z
" transform="scale(0.015625)"/>
        <path id="DejaVuSans-4c" d="M 628 4666 
L 1259 4666 
L 1259 531 
L 3531 531 
L 3531 0 
L 628 0 
L 628 4666 
z
" transform="scale(0.015625)"/>
        <path id="DejaVuSans-61" d="M 2194 1759 
Q 1497 1759 1228 1600 
Q 959 1441 959 1056 
Q 959 750 1161 570 
Q 1363 391 1709 391 
Q 2188 391 2477 730 
Q 2766 1069 2766 1631 
L 2766 1759 
L 2194 1759 
z
M 3341 1997 
L 3341 0 
L 2766 0 
L 2766 531 
Q 2569 213 2275 61 
Q 1981 -91 1556 -91 
Q 1019 -91 701 211 
Q 384 513 384 1019 
Q 384 1609 779 1909 
Q 1175 2209 1959 2209 
L 2766 2209 
L 2766 2266 
Q 2766 2663 2505 2880 
Q 2244 3097 1772 3097 
Q 1472 3097 1187 3025 
Q 903 2953 641 2809 
L 641 3341 
Q 956 3463 1253 3523 
Q 1550 3584 1831 3584 
Q 2591 3584 2966 3190 
Q 3341 2797 3341 1997 
z
" transform="scale(0.015625)"/>
       </defs>
       <use xlink:href="#DejaVuSans-52"/>
       <use xlink:href="#DejaVuSans-6f" transform="translate(64.982422 0)"/>
       <use xlink:href="#DejaVuSans-62" transform="translate(126.164062 0)"/>
       <use xlink:href="#DejaVuSans-6f" transform="translate(189.640625 0)"/>
       <use xlink:href="#DejaVuSans-74" transform="translate(250.822266 0)"/>
       <use xlink:href="#DejaVuSans-20" transform="translate(290.03125 0)"/>
       <use xlink:href="#DejaVuSans-77" transform="translate(321.818359 0)"/>
       <use xlink:href="#DejaVuSans-69" transform="translate(403.605469 0)"/>
       <use xlink:href="#DejaVuSans-74" transform="translate(431.388672 0)"/>
       <use xlink:href="#DejaVuSans-68" transform="translate(470.597656 0)"/>
       <use xlink:href="#DejaVuSans-20" transform="translate(533.976562 0)"/>
       <use xlink:href="#DejaVuSans-4c" transform="translate(565.763672 0)"/>
       <use xlink:href="#DejaVuSans-6f" transform="translate(619.726562 0)"/>
       <use xlink:href="#DejaVuSans-61" transform="translate(680.908203 0)"/>
       <use xlink:href="#DejaVuSans-64" transform="translate(742.1875 0)"/>
       <use xlink:href="#DejaVuSans-20" transform="translate(805.664062 0)"/>
       <use xlink:href="#DejaVuSans-64" transform="translate(837.451172 0)"/>
       <use xlink:href="#DejaVuSans-65" transform="translate(900.927734 0)"/>
       <use xlink:href="#DejaVuSans-74" transform="translate(962.451172 0)"/>
       <use xlink:href="#DejaVuSans-65" transform="translate(1001.660156 0)"/>
       <use xlink:href="#DejaVuSans-63" transform="translate(1063.183594 0)"/>
       <use xlink:href="#DejaVuSans-74" transform="translate(1118.164062 0)"/>
       <use xlink:href="#DejaVuSans-65" transform="translate(1157.373047 0)"/>
       <use xlink:href="#DejaVuSans-64" transform="translate(1218.896484 0)"/>
      </g>
     </g>
    </g>
    <g id="ytick_3">
     <g id="line2d_8">
      <g>
       <use xlink:href="#mc262129237" x="518.733625" y="130.665" style="stroke: #000000; stroke-width: 0.8"/>
      </g>
     </g>
     <g id="text_9">
      <!-- Robot in Loading State detected -->
      <g transform="translate(350.478938 134.464219) scale(0.1 -0.1)">
       <defs>
        <path id="DejaVuSans-67" d="M 2906 1791 
Q 2906 2416 2648 2759 
Q 2391 3103 1925 3103 
Q 1463 3103 1205 2759 
Q 947 2416 947 1791 
Q 947 1169 1205 825 
Q 1463 481 1925 481 
Q 2391 481 2648 825 
Q 2906 1169 2906 1791 
z
M 3481 434 
Q 3481 -459 3084 -895 
Q 2688 -1331 1869 -1331 
Q 1566 -1331 1297 -1286 
Q 1028 -1241 775 -1147 
L 775 -588 
Q 1028 -725 1275 -790 
Q 1522 -856 1778 -856 
Q 2344 -856 2625 -561 
Q 2906 -266 2906 331 
L 2906 616 
Q 2728 306 2450 153 
Q 2172 0 1784 0 
Q 1141 0 747 490 
Q 353 981 353 1791 
Q 353 2603 747 3093 
Q 1141 3584 1784 3584 
Q 2172 3584 2450 3431 
Q 2728 3278 2906 2969 
L 2906 3500 
L 3481 3500 
L 3481 434 
z
" transform="scale(0.015625)"/>
       </defs>
       <use xlink:href="#DejaVuSans-52"/>
       <use xlink:href="#DejaVuSans-6f" transform="translate(64.982422 0)"/>
       <use xlink:href="#DejaVuSans-62" transform="translate(126.164062 0)"/>
       <use xlink:href="#DejaVuSans-6f" transform="translate(189.640625 0)"/>
       <use xlink:href="#DejaVuSans-74" transform="translate(250.822266 0)"/>
       <use xlink:href="#DejaVuSans-20" transform="translate(290.03125 0)"/>
       <use xlink:href="#DejaVuSans-69" transform="translate(321.818359 0)"/>
       <use xlink:href="#DejaVuSans-6e" transform="translate(349.601562 0)"/>
       <use xlink:href="#DejaVuSans-20" transform="translate(412.980469 0)"/>
       <use xlink:href="#DejaVuSans-4c" transform="translate(444.767578 0)"/>
       <use xlink:href="#DejaVuSans-6f" transform="translate(498.730469 0)"/>
       <use xlink:href="#DejaVuSans-61" transform="translate(559.912109 0)"/>
       <use xlink:href="#DejaVuSans-64" transform="translate(621.191406 0)"/>
       <use xlink:href="#DejaVuSans-69" transform="translate(684.667969 0)"/>
       <use xlink:href="#DejaVuSans-6e" transform="translate(712.451172 0)"/>
       <use xlink:href="#DejaVuSans-67" transform="translate(775.830078 0)"/>
       <use xlink:href="#DejaVuSans-20" transform="translate(839.306641 0)"/>
       <use xlink:href="#DejaVuSans-53" transform="translate(871.09375 0)"/>
       <use xlink:href="#DejaVuSans-74" transform="translate(934.570312 0)"/>
       <use xlink:href="#DejaVuSans-61" transform="translate(973.779297 0)"/>
       <use xlink:href="#DejaVuSans-74" transform="translate(1035.058594 0)"/>
       <use xlink:href="#DejaVuSans-65" transform="translate(1074.267578 0)"/>
       <use xlink:href="#DejaVuSans-20" transform="translate(1135.791016 0)"/>
       <use xlink:href="#DejaVuSans-64" transform="translate(1167.578125 0)"/>
       <use xlink:href="#DejaVuSans-65" transform="translate(1231.054688 0)"/>
       <use xlink:href="#DejaVuSans-74" transform="translate(1292.578125 0)"/>
       <use xlink:href="#DejaVuSans-65" transform="translate(1331.787109 0)"/>
       <use xlink:href="#DejaVuSans-63" transform="translate(1393.310547 0)"/>
       <use xlink:href="#DejaVuSans-74" transform="translate(1448.291016 0)"/>
       <use xlink:href="#DejaVuSans-65" transform="translate(1487.5 0)"/>
       <use xlink:href="#DejaVuSans-64" transform="translate(1549.023438 0)"/>
      </g>
     </g>
    </g>
    <g id="ytick_4">
     <g id="line2d_9">
      <g>
       <use xlink:href="#mc262129237" x="518.733625" y="61.475" style="stroke: #000000; stroke-width: 0.8"/>
      </g>
     </g>
     <g id="text_10">
      <!-- Joiner detected -->
      <g transform="translate(435.61175 65.274219) scale(0.1 -0.1)">
       <defs>
        <path id="DejaVuSans-4a" d="M 628 4666 
L 1259 4666 
L 1259 325 
Q 1259 -519 939 -900 
Q 619 -1281 -91 -1281 
L -331 -1281 
L -331 -750 
L -134 -750 
Q 284 -750 456 -515 
Q 628 -281 628 325 
L 628 4666 
z
" transform="scale(0.015625)"/>
       </defs>
       <use xlink:href="#DejaVuSans-4a"/>
       <use xlink:href="#DejaVuSans-6f" transform="translate(29.492188 0)"/>
       <use xlink:href="#DejaVuSans-69" transform="translate(90.673828 0)"/>
       <use xlink:href="#DejaVuSans-6e" transform="translate(118.457031 0)"/>
       <use xlink:href="#DejaVuSans-65" transform="translate(181.835938 0)"/>
       <use xlink:href="#DejaVuSans-72" transform="translate(243.359375 0)"/>
       <use xlink:href="#DejaVuSans-20" transform="translate(284.472656 0)"/>
       <use xlink:href="#DejaVuSans-64" transform="translate(316.259766 0)"/>
       <use xlink:href="#DejaVuSans-65" transform="translate(379.736328 0)"/>
       <use xlink:href="#DejaVuSans-74" transform="translate(441.259766 0)"/>
       <use xlink:href="#DejaVuSans-65" transform="translate(480.46875 0)"/>
       <use xlink:href="#DejaVuSans-63" transform="translate(541.992188 0)"/>
       <use xlink:href="#DejaVuSans-74" transform="translate(596.972656 0)"/>
       <use xlink:href="#DejaVuSans-65" transform="translate(636.181641 0)"/>
       <use xlink:href="#DejaVuSans-64" transform="translate(697.705078 0)"/>
      </g>
     </g>
    </g>
   </g>
   <g id="line2d_10">
    <path d="M 634.271161 284.61275 
L 634.271161 253.47725 
L 676.533217 253.47725 
L 676.533217 284.61275 
L 634.271161 284.61275 
" clip-path="url(#p1cefc246f8)" style="fill: none; stroke: #000000; stroke-linecap: square"/>
   </g>
   <g id="line2d_11">
    <path d="M 634.271161 269.045 
L 594.858823 269.045 
" clip-path="url(#p1cefc246f8)" style="fill: none; stroke: #000000; stroke-linecap: square"/>
   </g>
   <g id="line2d_12">
    <path d="M 676.533217 269.045 
L 711.255942 269.045 
" clip-path="url(#p1cefc246f8)" style="fill: none; stroke: #000000; stroke-linecap: square"/>
   </g>
   <g id="line2d_13">
    <path d="M 594.858823 276.828875 
L 594.858823 261.261125 
" clip-path="url(#p1cefc246f8)" style="fill: none; stroke: #000000; stroke-linecap: square"/>
   </g>
   <g id="line2d_14">
    <path d="M 711.255942 276.828875 
L 711.255942 261.261125 
" clip-path="url(#p1cefc246f8)" style="fill: none; stroke: #000000; stroke-linecap: square"/>
   </g>
   <g id="line2d_15"/>
   <g id="line2d_16">
    <path d="M 630.10735 215.42275 
L 630.10735 184.28725 
L 638.337292 184.28725 
L 638.337292 215.42275 
L 630.10735 215.42275 
" clip-path="url(#p1cefc246f8)" style="fill: none; stroke: #000000; stroke-linecap: square"/>
   </g>
   <g id="line2d_17">
    <path d="M 630.10735 199.855 
L 628.353749 199.855 
" clip-path="url(#p1cefc246f8)" style="fill: none; stroke: #000000; stroke-linecap: square"/>
   </g>
   <g id="line2d_18">
    <path d="M 638.337292 199.855 
L 638.564182 199.855 
" clip-path="url(#p1cefc246f8)" style="fill: none; stroke: #000000; stroke-linecap: square"/>
   </g>
   <g id="line2d_19">
    <path d="M 628.353749 207.638875 
L 628.353749 192.071125 
" clip-path="url(#p1cefc246f8)" style="fill: none; stroke: #000000; stroke-linecap: square"/>
   </g>
   <g id="line2d_20">
    <path d="M 638.564182 207.638875 
L 638.564182 192.071125 
" clip-path="url(#p1cefc246f8)" style="fill: none; stroke: #000000; stroke-linecap: square"/>
   </g>
   <g id="line2d_21">
    <defs>
     <path id="m0c439d2034" d="M 0 3 
C 0.795609 3 1.55874 2.683901 2.12132 2.12132 
C 2.683901 1.55874 3 0.795609 3 0 
C 3 -0.795609 2.683901 -1.55874 2.12132 -2.12132 
C 1.55874 -2.683901 0.795609 -3 0 -3 
C -0.795609 -3 -1.55874 -2.683901 -2.12132 -2.12132 
C -2.683901 -1.55874 -3 -0.795609 -3 0 
C -3 0.795609 -2.683901 1.55874 -2.12132 2.12132 
C -1.55874 2.683901 -0.795609 3 0 3 
z
" style="stroke: #000000"/>
    </defs>
    <g clip-path="url(#p1cefc246f8)">
     <use xlink:href="#m0c439d2034" x="604.131817" y="199.855" style="fill-opacity: 0; stroke: #000000"/>
     <use xlink:href="#m0c439d2034" x="756.411661" y="199.855" style="fill-opacity: 0; stroke: #000000"/>
    </g>
   </g>
   <g id="line2d_22">
    <path d="M 634.034329 146.23275 
L 634.034329 115.09725 
L 663.639782 115.09725 
L 663.639782 146.23275 
L 634.034329 146.23275 
" clip-path="url(#p1cefc246f8)" style="fill: none; stroke: #000000; stroke-linecap: square"/>
   </g>
   <g id="line2d_23">
    <path d="M 634.034329 130.665 
L 625.514232 130.665 
" clip-path="url(#p1cefc246f8)" style="fill: none; stroke: #000000; stroke-linecap: square"/>
   </g>
   <g id="line2d_24">
    <path d="M 663.639782 130.665 
L 681.768364 130.665 
" clip-path="url(#p1cefc246f8)" style="fill: none; stroke: #000000; stroke-linecap: square"/>
   </g>
   <g id="line2d_25">
    <path d="M 625.514232 138.448875 
L 625.514232 122.881125 
" clip-path="url(#p1cefc246f8)" style="fill: none; stroke: #000000; stroke-linecap: square"/>
   </g>
   <g id="line2d_26">
    <path d="M 681.768364 138.448875 
L 681.768364 122.881125 
" clip-path="url(#p1cefc246f8)" style="fill: none; stroke: #000000; stroke-linecap: square"/>
   </g>
   <g id="line2d_27">
    <g clip-path="url(#p1cefc246f8)">
     <use xlink:href="#m0c439d2034" x="1266.57596" y="130.665" style="fill-opacity: 0; stroke: #000000"/>
     <use xlink:href="#m0c439d2034" x="713.591604" y="130.665" style="fill-opacity: 0; stroke: #000000"/>
    </g>
   </g>
   <g id="line2d_28">
    <path d="M 630.978381 77.04275 
L 630.978381 45.90725 
L 642.831597 45.90725 
L 642.831597 77.04275 
L 630.978381 77.04275 
" clip-path="url(#p1cefc246f8)" style="fill: none; stroke: #000000; stroke-linecap: square"/>
   </g>
   <g id="line2d_29">
    <path d="M 630.978381 61.475 
L 629.425137 61.475 
" clip-path="url(#p1cefc246f8)" style="fill: none; stroke: #000000; stroke-linecap: square"/>
   </g>
   <g id="line2d_30">
    <path d="M 642.831597 61.475 
L 645.301827 61.475 
" clip-path="url(#p1cefc246f8)" style="fill: none; stroke: #000000; stroke-linecap: square"/>
   </g>
   <g id="line2d_31">
    <path d="M 629.425137 69.258875 
L 629.425137 53.691125 
" clip-path="url(#p1cefc246f8)" style="fill: none; stroke: #000000; stroke-linecap: square"/>
   </g>
   <g id="line2d_32">
    <path d="M 645.301827 69.258875 
L 645.301827 53.691125 
" clip-path="url(#p1cefc246f8)" style="fill: none; stroke: #000000; stroke-linecap: square"/>
   </g>
   <g id="line2d_33">
    <g clip-path="url(#p1cefc246f8)">
     <use xlink:href="#m0c439d2034" x="554.345165" y="61.475" style="fill-opacity: 0; stroke: #000000"/>
     <use xlink:href="#m0c439d2034" x="1010.698977" y="61.475" style="fill-opacity: 0; stroke: #000000"/>
    </g>
   </g>
   <g id="line2d_34">
    <path d="M 656.24764 284.61275 
L 656.24764 253.47725 
" clip-path="url(#p1cefc246f8)" style="fill: none; stroke: #ff7f0e"/>
   </g>
   <g id="line2d_35">
    <path d="M 635.265013 215.42275 
L 635.265013 184.28725 
" clip-path="url(#p1cefc246f8)" style="fill: none; stroke: #ff7f0e"/>
   </g>
   <g id="line2d_36">
    <path d="M 636.758546 146.23275 
L 636.758546 115.09725 
" clip-path="url(#p1cefc246f8)" style="fill: none; stroke: #ff7f0e"/>
   </g>
   <g id="line2d_37">
    <path d="M 638.014784 77.04275 
L 638.014784 45.90725 
" clip-path="url(#p1cefc246f8)" style="fill: none; stroke: #ff7f0e"/>
   </g>
   <g id="patch_3">
    <path d="M 518.733625 303.64 
L 518.733625 26.88 
" style="fill: none; stroke: #000000; stroke-width: 0.8; stroke-linejoin: miter; stroke-linecap: square"/>
   </g>
   <g id="patch_4">
    <path d="M 1302.1875 303.64 
L 1302.1875 26.88 
" style="fill: none; stroke: #000000; stroke-width: 0.8; stroke-linejoin: miter; stroke-linecap: square"/>
   </g>
   <g id="patch_5">
    <path d="M 518.733625 303.64 
L 1302.1875 303.64 
" style="fill: none; stroke: #000000; stroke-width: 0.8; stroke-linejoin: miter; stroke-linecap: square"/>
   </g>
   <g id="patch_6">
    <path d="M 518.733625 26.88 
L 1302.1875 26.88 
" style="fill: none; stroke: #000000; stroke-width: 0.8; stroke-linejoin: miter; stroke-linecap: square"/>
   </g>
   <g id="text_11">
    <!-- Full System Execution Times for specific Actions -->
    <g transform="translate(766.303063 20.88) scale(0.12 -0.12)">
     <defs>
      <path id="DejaVuSans-46" d="M 628 4666 
L 3309 4666 
L 3309 4134 
L 1259 4134 
L 1259 2759 
L 3109 2759 
L 3109 2228 
L 1259 2228 
L 1259 0 
L 628 0 
L 628 4666 
z
" transform="scale(0.015625)"/>
      <path id="DejaVuSans-75" d="M 544 1381 
L 544 3500 
L 1119 3500 
L 1119 1403 
Q 1119 906 1312 657 
Q 1506 409 1894 409 
Q 2359 409 2629 706 
Q 2900 1003 2900 1516 
L 2900 3500 
L 3475 3500 
L 3475 0 
L 2900 0 
L 2900 538 
Q 2691 219 2414 64 
Q 2138 -91 1772 -91 
Q 1169 -91 856 284 
Q 544 659 544 1381 
z
M 1991 3584 
L 1991 3584 
z
" transform="scale(0.015625)"/>
      <path id="DejaVuSans-6c" d="M 603 4863 
L 1178 4863 
L 1178 0 
L 603 0 
L 603 4863 
z
" transform="scale(0.015625)"/>
      <path id="DejaVuSans-6d" d="M 3328 2828 
Q 3544 3216 3844 3400 
Q 4144 3584 4550 3584 
Q 5097 3584 5394 3201 
Q 5691 2819 5691 2113 
L 5691 0 
L 5113 0 
L 5113 2094 
Q 5113 2597 4934 2840 
Q 4756 3084 4391 3084 
Q 3944 3084 3684 2787 
Q 3425 2491 3425 1978 
L 3425 0 
L 2847 0 
L 2847 2094 
Q 2847 2600 2669 2842 
Q 2491 3084 2119 3084 
Q 1678 3084 1418 2786 
Q 1159 2488 1159 1978 
L 1159 0 
L 581 0 
L 581 3500 
L 1159 3500 
L 1159 2956 
Q 1356 3278 1631 3431 
Q 1906 3584 2284 3584 
Q 2666 3584 2933 3390 
Q 3200 3197 3328 2828 
z
" transform="scale(0.015625)"/>
      <path id="DejaVuSans-45" d="M 628 4666 
L 3578 4666 
L 3578 4134 
L 1259 4134 
L 1259 2753 
L 3481 2753 
L 3481 2222 
L 1259 2222 
L 1259 531 
L 3634 531 
L 3634 0 
L 628 0 
L 628 4666 
z
" transform="scale(0.015625)"/>
      <path id="DejaVuSans-78" d="M 3513 3500 
L 2247 1797 
L 3578 0 
L 2900 0 
L 1881 1375 
L 863 0 
L 184 0 
L 1544 1831 
L 300 3500 
L 978 3500 
L 1906 2253 
L 2834 3500 
L 3513 3500 
z
" transform="scale(0.015625)"/>
      <path id="DejaVuSans-54" d="M -19 4666 
L 3928 4666 
L 3928 4134 
L 2272 4134 
L 2272 0 
L 1638 0 
L 1638 4134 
L -19 4134 
L -19 4666 
z
" transform="scale(0.015625)"/>
      <path id="DejaVuSans-66" d="M 2375 4863 
L 2375 4384 
L 1825 4384 
Q 1516 4384 1395 4259 
Q 1275 4134 1275 3809 
L 1275 3500 
L 2222 3500 
L 2222 3053 
L 1275 3053 
L 1275 0 
L 697 0 
L 697 3053 
L 147 3053 
L 147 3500 
L 697 3500 
L 697 3744 
Q 697 4328 969 4595 
Q 1241 4863 1831 4863 
L 2375 4863 
z
" transform="scale(0.015625)"/>
      <path id="DejaVuSans-70" d="M 1159 525 
L 1159 -1331 
L 581 -1331 
L 581 3500 
L 1159 3500 
L 1159 2969 
Q 1341 3281 1617 3432 
Q 1894 3584 2278 3584 
Q 2916 3584 3314 3078 
Q 3713 2572 3713 1747 
Q 3713 922 3314 415 
Q 2916 -91 2278 -91 
Q 1894 -91 1617 61 
Q 1341 213 1159 525 
z
M 3116 1747 
Q 3116 2381 2855 2742 
Q 2594 3103 2138 3103 
Q 1681 3103 1420 2742 
Q 1159 2381 1159 1747 
Q 1159 1113 1420 752 
Q 1681 391 2138 391 
Q 2594 391 2855 752 
Q 3116 1113 3116 1747 
z
" transform="scale(0.015625)"/>
      <path id="DejaVuSans-41" d="M 2188 4044 
L 1331 1722 
L 3047 1722 
L 2188 4044 
z
M 1831 4666 
L 2547 4666 
L 4325 0 
L 3669 0 
L 3244 1197 
L 1141 1197 
L 716 0 
L 50 0 
L 1831 4666 
z
" transform="scale(0.015625)"/>
     </defs>
     <use xlink:href="#DejaVuSans-46"/>
     <use xlink:href="#DejaVuSans-75" transform="translate(52.019531 0)"/>
     <use xlink:href="#DejaVuSans-6c" transform="translate(115.398438 0)"/>
     <use xlink:href="#DejaVuSans-6c" transform="translate(143.181641 0)"/>
     <use xlink:href="#DejaVuSans-20" transform="translate(170.964844 0)"/>
     <use xlink:href="#DejaVuSans-53" transform="translate(202.751953 0)"/>
     <use xlink:href="#DejaVuSans-79" transform="translate(266.228516 0)"/>
     <use xlink:href="#DejaVuSans-73" transform="translate(325.408203 0)"/>
     <use xlink:href="#DejaVuSans-74" transform="translate(377.507812 0)"/>
     <use xlink:href="#DejaVuSans-65" transform="translate(416.716797 0)"/>
     <use xlink:href="#DejaVuSans-6d" transform="translate(478.240234 0)"/>
     <use xlink:href="#DejaVuSans-20" transform="translate(575.652344 0)"/>
     <use xlink:href="#DejaVuSans-45" transform="translate(607.439453 0)"/>
     <use xlink:href="#DejaVuSans-78" transform="translate(670.623047 0)"/>
     <use xlink:href="#DejaVuSans-65" transform="translate(726.677734 0)"/>
     <use xlink:href="#DejaVuSans-63" transform="translate(788.201172 0)"/>
     <use xlink:href="#DejaVuSans-75" transform="translate(843.181641 0)"/>
     <use xlink:href="#DejaVuSans-74" transform="translate(906.560547 0)"/>
     <use xlink:href="#DejaVuSans-69" transform="translate(945.769531 0)"/>
     <use xlink:href="#DejaVuSans-6f" transform="translate(973.552734 0)"/>
     <use xlink:href="#DejaVuSans-6e" transform="translate(1034.734375 0)"/>
     <use xlink:href="#DejaVuSans-20" transform="translate(1098.113281 0)"/>
     <use xlink:href="#DejaVuSans-54" transform="translate(1129.900391 0)"/>
     <use xlink:href="#DejaVuSans-69" transform="translate(1187.859375 0)"/>
     <use xlink:href="#DejaVuSans-6d" transform="translate(1215.642578 0)"/>
     <use xlink:href="#DejaVuSans-65" transform="translate(1313.054688 0)"/>
     <use xlink:href="#DejaVuSans-73" transform="translate(1374.578125 0)"/>
     <use xlink:href="#DejaVuSans-20" transform="translate(1426.677734 0)"/>
     <use xlink:href="#DejaVuSans-66" transform="translate(1458.464844 0)"/>
     <use xlink:href="#DejaVuSans-6f" transform="translate(1493.669922 0)"/>
     <use xlink:href="#DejaVuSans-72" transform="translate(1554.851562 0)"/>
     <use xlink:href="#DejaVuSans-20" transform="translate(1595.964844 0)"/>
     <use xlink:href="#DejaVuSans-73" transform="translate(1627.751953 0)"/>
     <use xlink:href="#DejaVuSans-70" transform="translate(1679.851562 0)"/>
     <use xlink:href="#DejaVuSans-65" transform="translate(1743.328125 0)"/>
     <use xlink:href="#DejaVuSans-63" transform="translate(1804.851562 0)"/>
     <use xlink:href="#DejaVuSans-69" transform="translate(1859.832031 0)"/>
     <use xlink:href="#DejaVuSans-66" transform="translate(1887.615234 0)"/>
     <use xlink:href="#DejaVuSans-69" transform="translate(1922.820312 0)"/>
     <use xlink:href="#DejaVuSans-63" transform="translate(1950.603516 0)"/>
     <use xlink:href="#DejaVuSans-20" transform="translate(2005.583984 0)"/>
     <use xlink:href="#DejaVuSans-41" transform="translate(2037.371094 0)"/>
     <use xlink:href="#DejaVuSans-63" transform="translate(2104.029297 0)"/>
     <use xlink:href="#DejaVuSans-74" transform="translate(2159.009766 0)"/>
     <use xlink:href="#DejaVuSans-69" transform="translate(2198.21875 0)"/>
     <use xlink:href="#DejaVuSans-6f" transform="translate(2226.001953 0)"/>
     <use xlink:href="#DejaVuSans-6e" transform="translate(2287.183594 0)"/>
     <use xlink:href="#DejaVuSans-73" transform="translate(2350.5625 0)"/>
    </g>
   </g>
  </g>
 </g>
 <defs>
  <clipPath id="p1cefc246f8">
   <rect x="518.733625" y="26.88" width="783.453875" height="276.76"/>
  </clipPath>
 </defs>
</svg>
