<?xml version="1.0" encoding="utf-8" standalone="no"?>
<!DOCTYPE svg PUBLIC "-//W3C//DTD SVG 1.1//EN"
  "http://www.w3.org/Graphics/SVG/1.1/DTD/svg11.dtd">
<svg xmlns:xlink="http://www.w3.org/1999/xlink" width="1329.84pt" height="345.6pt" viewBox="0 0 1329.84 345.6" xmlns="http://www.w3.org/2000/svg" version="1.1">
 <metadata>
  <rdf:RDF xmlns:dc="http://purl.org/dc/elements/1.1/" xmlns:cc="http://creativecommons.org/ns#" xmlns:rdf="http://www.w3.org/1999/02/22-rdf-syntax-ns#">
   <cc:Work>
    <dc:type rdf:resource="http://purl.org/dc/dcmitype/StillImage"/>
    <dc:date>2025-10-21T23:46:55.122761</dc:date>
    <dc:format>image/svg+xml</dc:format>
    <dc:creator>
     <cc:Agent>
      <dc:title>Matplotlib v3.10.7, https://matplotlib.org/</dc:title>
     </cc:Agent>
    </dc:creator>
   </cc:Work>
  </rdf:RDF>
 </metadata>
 <defs>
  <style type="text/css">*{stroke-linejoin: round; stroke-linecap: butt}</style>
 </defs>
 <g id="figure_1">
  <g id="patch_1">
   <path d="M 0 345.6 
L 1329.84 345.6 
L 1329.84 0 
L 0 0 
z
" style="fill: #ffffff"/>
  </g>
  <g id="axes_1">
   <g id="patch_2">
    <path d="M 88.251969 303.64 
L 1298.671875 303.64 
L 1298.671875 26.88 
L 88.251969 26.88 
z
" style="fill: #ffffff"/>
   </g>
   <g id="matplotlib.axis_1">
    <g id="xtick_1">
     <g id="line2d_1">
      <defs>
       <path id="m8a7323def4" d="M 0 0 
L 0 3.5 
" style="stroke: #000000; stroke-width: 0.8"/>
      </defs>
      <g>
       <use xlink:href="#m8a7323def4" x="143.265813" y="303.64" style="stroke: #000000; stroke-width: 0.8"/>
      </g>
     </g>
     <g id="text_1">
      <!-- 0.0 -->
      <g transform="translate(135.31425 318.238437) scale(0.1 -0.1)">
       <defs>
        <path id="DejaVuSans-30" d="M 2034 4250 
Q 1547 4250 1301 3770 
Q 1056 3291 1056 2328 
Q 1056 1369 1301 889 
Q 1547 409 2034 409 
Q 2525 409 2770 889 
Q 3016 1369 3016 2328 
Q 3016 3291 2770 3770 
Q 2525 4250 2034 4250 
z
M 2034 4750 
Q 2819 4750 3233 4129 
Q 3647 3509 3647 2328 
Q 3647 1150 3233 529 
Q 2819 -91 2034 -91 
Q 1250 -91 836 529 
Q 422 1150 422 2328 
Q 422 3509 836 4129 
Q 1250 4750 2034 4750 
z
" transform="scale(0.015625)"/>
        <path id="DejaVuSans-2e" d="M 684 794 
L 1344 794 
L 1344 0 
L 684 0 
L 684 794 
z
" transform="scale(0.015625)"/>
       </defs>
       <use xlink:href="#DejaVuSans-30"/>
       <use xlink:href="#DejaVuSans-2e" transform="translate(63.623047 0)"/>
       <use xlink:href="#DejaVuSans-30" transform="translate(95.410156 0)"/>
      </g>
     </g>
    </g>
    <g id="xtick_2">
     <g id="line2d_2">
      <g>
       <use xlink:href="#m8a7323def4" x="294.919689" y="303.64" style="stroke: #000000; stroke-width: 0.8"/>
      </g>
     </g>
     <g id="text_2">
      <!-- 0.2 -->
      <g transform="translate(286.968127 318.238437) scale(0.1 -0.1)">
       <defs>
        <path id="DejaVuSans-32" d="M 1228 531 
L 3431 531 
L 3431 0 
L 469 0 
L 469 531 
Q 828 903 1448 1529 
Q 2069 2156 2228 2338 
Q 2531 2678 2651 2914 
Q 2772 3150 2772 3378 
Q 2772 3750 2511 3984 
Q 2250 4219 1831 4219 
Q 1534 4219 1204 4116 
Q 875 4013 500 3803 
L 500 4441 
Q 881 4594 1212 4672 
Q 1544 4750 1819 4750 
Q 2544 4750 2975 4387 
Q 3406 4025 3406 3419 
Q 3406 3131 3298 2873 
Q 3191 2616 2906 2266 
Q 2828 2175 2409 1742 
Q 1991 1309 1228 531 
z
" transform="scale(0.015625)"/>
       </defs>
       <use xlink:href="#DejaVuSans-30"/>
       <use xlink:href="#DejaVuSans-2e" transform="translate(63.623047 0)"/>
       <use xlink:href="#DejaVuSans-32" transform="translate(95.410156 0)"/>
      </g>
     </g>
    </g>
    <g id="xtick_3">
     <g id="line2d_3">
      <g>
       <use xlink:href="#m8a7323def4" x="446.573566" y="303.64" style="stroke: #000000; stroke-width: 0.8"/>
      </g>
     </g>
     <g id="text_3">
      <!-- 0.4 -->
      <g transform="translate(438.622003 318.238437) scale(0.1 -0.1)">
       <defs>
        <path id="DejaVuSans-34" d="M 2419 4116 
L 825 1625 
L 2419 1625 
L 2419 4116 
z
M 2253 4666 
L 3047 4666 
L 3047 1625 
L 3713 1625 
L 3713 1100 
L 3047 1100 
L 3047 0 
L 2419 0 
L 2419 1100 
L 313 1100 
L 313 1709 
L 2253 4666 
z
" transform="scale(0.015625)"/>
       </defs>
       <use xlink:href="#DejaVuSans-30"/>
       <use xlink:href="#DejaVuSans-2e" transform="translate(63.623047 0)"/>
       <use xlink:href="#DejaVuSans-34" transform="translate(95.410156 0)"/>
      </g>
     </g>
    </g>
    <g id="xtick_4">
     <g id="line2d_4">
      <g>
       <use xlink:href="#m8a7323def4" x="598.227442" y="303.64" style="stroke: #000000; stroke-width: 0.8"/>
      </g>
     </g>
     <g id="text_4">
      <!-- 0.6 -->
      <g transform="translate(590.27588 318.238437) scale(0.1 -0.1)">
       <defs>
        <path id="DejaVuSans-36" d="M 2113 2584 
Q 1688 2584 1439 2293 
Q 1191 2003 1191 1497 
Q 1191 994 1439 701 
Q 1688 409 2113 409 
Q 2538 409 2786 701 
Q 3034 994 3034 1497 
Q 3034 2003 2786 2293 
Q 2538 2584 2113 2584 
z
M 3366 4563 
L 3366 3988 
Q 3128 4100 2886 4159 
Q 2644 4219 2406 4219 
Q 1781 4219 1451 3797 
Q 1122 3375 1075 2522 
Q 1259 2794 1537 2939 
Q 1816 3084 2150 3084 
Q 2853 3084 3261 2657 
Q 3669 2231 3669 1497 
Q 3669 778 3244 343 
Q 2819 -91 2113 -91 
Q 1303 -91 875 529 
Q 447 1150 447 2328 
Q 447 3434 972 4092 
Q 1497 4750 2381 4750 
Q 2619 4750 2861 4703 
Q 3103 4656 3366 4563 
z
" transform="scale(0.015625)"/>
       </defs>
       <use xlink:href="#DejaVuSans-30"/>
       <use xlink:href="#DejaVuSans-2e" transform="translate(63.623047 0)"/>
       <use xlink:href="#DejaVuSans-36" transform="translate(95.410156 0)"/>
      </g>
     </g>
    </g>
    <g id="xtick_5">
     <g id="line2d_5">
      <g>
       <use xlink:href="#m8a7323def4" x="749.881319" y="303.64" style="stroke: #000000; stroke-width: 0.8"/>
      </g>
     </g>
     <g id="text_5">
      <!-- 0.8 -->
      <g transform="translate(741.929756 318.238437) scale(0.1 -0.1)">
       <defs>
        <path id="DejaVuSans-38" d="M 2034 2216 
Q 1584 2216 1326 1975 
Q 1069 1734 1069 1313 
Q 1069 891 1326 650 
Q 1584 409 2034 409 
Q 2484 409 2743 651 
Q 3003 894 3003 1313 
Q 3003 1734 2745 1975 
Q 2488 2216 2034 2216 
z
M 1403 2484 
Q 997 2584 770 2862 
Q 544 3141 544 3541 
Q 544 4100 942 4425 
Q 1341 4750 2034 4750 
Q 2731 4750 3128 4425 
Q 3525 4100 3525 3541 
Q 3525 3141 3298 2862 
Q 3072 2584 2669 2484 
Q 3125 2378 3379 2068 
Q 3634 1759 3634 1313 
Q 3634 634 3220 271 
Q 2806 -91 2034 -91 
Q 1263 -91 848 271 
Q 434 634 434 1313 
Q 434 1759 690 2068 
Q 947 2378 1403 2484 
z
M 1172 3481 
Q 1172 3119 1398 2916 
Q 1625 2713 2034 2713 
Q 2441 2713 2670 2916 
Q 2900 3119 2900 3481 
Q 2900 3844 2670 4047 
Q 2441 4250 2034 4250 
Q 1625 4250 1398 4047 
Q 1172 3844 1172 3481 
z
" transform="scale(0.015625)"/>
       </defs>
       <use xlink:href="#DejaVuSans-30"/>
       <use xlink:href="#DejaVuSans-2e" transform="translate(63.623047 0)"/>
       <use xlink:href="#DejaVuSans-38" transform="translate(95.410156 0)"/>
      </g>
     </g>
    </g>
    <g id="xtick_6">
     <g id="line2d_6">
      <g>
       <use xlink:href="#m8a7323def4" x="901.535195" y="303.64" style="stroke: #000000; stroke-width: 0.8"/>
      </g>
     </g>
     <g id="text_6">
      <!-- 1.0 -->
      <g transform="translate(893.583633 318.238437) scale(0.1 -0.1)">
       <defs>
        <path id="DejaVuSans-31" d="M 794 531 
L 1825 531 
L 1825 4091 
L 703 3866 
L 703 4441 
L 1819 4666 
L 2450 4666 
L 2450 531 
L 3481 531 
L 3481 0 
L 794 0 
L 794 531 
z
" transform="scale(0.015625)"/>
       </defs>
       <use xlink:href="#DejaVuSans-31"/>
       <use xlink:href="#DejaVuSans-2e" transform="translate(63.623047 0)"/>
       <use xlink:href="#DejaVuSans-30" transform="translate(95.410156 0)"/>
      </g>
     </g>
    </g>
    <g id="xtick_7">
     <g id="line2d_7">
      <g>
       <use xlink:href="#m8a7323def4" x="1053.189072" y="303.64" style="stroke: #000000; stroke-width: 0.8"/>
      </g>
     </g>
     <g id="text_7">
      <!-- 1.2 -->
      <g transform="translate(1045.237509 318.238437) scale(0.1 -0.1)">
       <use xlink:href="#DejaVuSans-31"/>
       <use xlink:href="#DejaVuSans-2e" transform="translate(63.623047 0)"/>
       <use xlink:href="#DejaVuSans-32" transform="translate(95.410156 0)"/>
      </g>
     </g>
    </g>
    <g id="xtick_8">
     <g id="line2d_8">
      <g>
       <use xlink:href="#m8a7323def4" x="1204.842949" y="303.64" style="stroke: #000000; stroke-width: 0.8"/>
      </g>
     </g>
     <g id="text_8">
      <!-- 1.4 -->
      <g transform="translate(1196.891386 318.238437) scale(0.1 -0.1)">
       <use xlink:href="#DejaVuSans-31"/>
       <use xlink:href="#DejaVuSans-2e" transform="translate(63.623047 0)"/>
       <use xlink:href="#DejaVuSans-34" transform="translate(95.410156 0)"/>
      </g>
     </g>
    </g>
    <g id="text_9">
     <!-- Seconds -->
     <g transform="translate(672.454891 331.916562) scale(0.1 -0.1)">
      <defs>
       <path id="DejaVuSans-53" d="M 3425 4513 
L 3425 3897 
Q 3066 4069 2747 4153 
Q 2428 4238 2131 4238 
Q 1616 4238 1336 4038 
Q 1056 3838 1056 3469 
Q 1056 3159 1242 3001 
Q 1428 2844 1947 2747 
L 2328 2669 
Q 3034 2534 3370 2195 
Q 3706 1856 3706 1288 
Q 3706 609 3251 259 
Q 2797 -91 1919 -91 
Q 1588 -91 1214 -16 
Q 841 59 441 206 
L 441 856 
Q 825 641 1194 531 
Q 1563 422 1919 422 
Q 2459 422 2753 634 
Q 3047 847 3047 1241 
Q 3047 1584 2836 1778 
Q 2625 1972 2144 2069 
L 1759 2144 
Q 1053 2284 737 2584 
Q 422 2884 422 3419 
Q 422 4038 858 4394 
Q 1294 4750 2059 4750 
Q 2388 4750 2728 4690 
Q 3069 4631 3425 4513 
z
" transform="scale(0.015625)"/>
       <path id="DejaVuSans-65" d="M 3597 1894 
L 3597 1613 
L 953 1613 
Q 991 1019 1311 708 
Q 1631 397 2203 397 
Q 2534 397 2845 478 
Q 3156 559 3463 722 
L 3463 178 
Q 3153 47 2828 -22 
Q 2503 -91 2169 -91 
Q 1331 -91 842 396 
Q 353 884 353 1716 
Q 353 2575 817 3079 
Q 1281 3584 2069 3584 
Q 2775 3584 3186 3129 
Q 3597 2675 3597 1894 
z
M 3022 2063 
Q 3016 2534 2758 2815 
Q 2500 3097 2075 3097 
Q 1594 3097 1305 2825 
Q 1016 2553 972 2059 
L 3022 2063 
z
" transform="scale(0.015625)"/>
       <path id="DejaVuSans-63" d="M 3122 3366 
L 3122 2828 
Q 2878 2963 2633 3030 
Q 2388 3097 2138 3097 
Q 1578 3097 1268 2742 
Q 959 2388 959 1747 
Q 959 1106 1268 751 
Q 1578 397 2138 397 
Q 2388 397 2633 464 
Q 2878 531 3122 666 
L 3122 134 
Q 2881 22 2623 -34 
Q 2366 -91 2075 -91 
Q 1284 -91 818 406 
Q 353 903 353 1747 
Q 353 2603 823 3093 
Q 1294 3584 2113 3584 
Q 2378 3584 2631 3529 
Q 2884 3475 3122 3366 
z
" transform="scale(0.015625)"/>
       <path id="DejaVuSans-6f" d="M 1959 3097 
Q 1497 3097 1228 2736 
Q 959 2375 959 1747 
Q 959 1119 1226 758 
Q 1494 397 1959 397 
Q 2419 397 2687 759 
Q 2956 1122 2956 1747 
Q 2956 2369 2687 2733 
Q 2419 3097 1959 3097 
z
M 1959 3584 
Q 2709 3584 3137 3096 
Q 3566 2609 3566 1747 
Q 3566 888 3137 398 
Q 2709 -91 1959 -91 
Q 1206 -91 779 398 
Q 353 888 353 1747 
Q 353 2609 779 3096 
Q 1206 3584 1959 3584 
z
" transform="scale(0.015625)"/>
       <path id="DejaVuSans-6e" d="M 3513 2113 
L 3513 0 
L 2938 0 
L 2938 2094 
Q 2938 2591 2744 2837 
Q 2550 3084 2163 3084 
Q 1697 3084 1428 2787 
Q 1159 2491 1159 1978 
L 1159 0 
L 581 0 
L 581 3500 
L 1159 3500 
L 1159 2956 
Q 1366 3272 1645 3428 
Q 1925 3584 2291 3584 
Q 2894 3584 3203 3211 
Q 3513 2838 3513 2113 
z
" transform="scale(0.015625)"/>
       <path id="DejaVuSans-64" d="M 2906 2969 
L 2906 4863 
L 3481 4863 
L 3481 0 
L 2906 0 
L 2906 525 
Q 2725 213 2448 61 
Q 2172 -91 1784 -91 
Q 1150 -91 751 415 
Q 353 922 353 1747 
Q 353 2572 751 3078 
Q 1150 3584 1784 3584 
Q 2172 3584 2448 3432 
Q 2725 3281 2906 2969 
z
M 947 1747 
Q 947 1113 1208 752 
Q 1469 391 1925 391 
Q 2381 391 2643 752 
Q 2906 1113 2906 1747 
Q 2906 2381 2643 2742 
Q 2381 3103 1925 3103 
Q 1469 3103 1208 2742 
Q 947 2381 947 1747 
z
" transform="scale(0.015625)"/>
       <path id="DejaVuSans-73" d="M 2834 3397 
L 2834 2853 
Q 2591 2978 2328 3040 
Q 2066 3103 1784 3103 
Q 1356 3103 1142 2972 
Q 928 2841 928 2578 
Q 928 2378 1081 2264 
Q 1234 2150 1697 2047 
L 1894 2003 
Q 2506 1872 2764 1633 
Q 3022 1394 3022 966 
Q 3022 478 2636 193 
Q 2250 -91 1575 -91 
Q 1294 -91 989 -36 
Q 684 19 347 128 
L 347 722 
Q 666 556 975 473 
Q 1284 391 1588 391 
Q 1994 391 2212 530 
Q 2431 669 2431 922 
Q 2431 1156 2273 1281 
Q 2116 1406 1581 1522 
L 1381 1569 
Q 847 1681 609 1914 
Q 372 2147 372 2553 
Q 372 3047 722 3315 
Q 1072 3584 1716 3584 
Q 2034 3584 2315 3537 
Q 2597 3491 2834 3397 
z
" transform="scale(0.015625)"/>
      </defs>
      <use xlink:href="#DejaVuSans-53"/>
      <use xlink:href="#DejaVuSans-65" transform="translate(63.476562 0)"/>
      <use xlink:href="#DejaVuSans-63" transform="translate(125 0)"/>
      <use xlink:href="#DejaVuSans-6f" transform="translate(179.980469 0)"/>
      <use xlink:href="#DejaVuSans-6e" transform="translate(241.162109 0)"/>
      <use xlink:href="#DejaVuSans-64" transform="translate(304.541016 0)"/>
      <use xlink:href="#DejaVuSans-73" transform="translate(368.017578 0)"/>
     </g>
    </g>
   </g>
   <g id="matplotlib.axis_2">
    <g id="ytick_1">
     <g id="line2d_9">
      <defs>
       <path id="m3ebd5c3e68" d="M 0 0 
L -3.5 0 
" style="stroke: #000000; stroke-width: 0.8"/>
      </defs>
      <g>
       <use xlink:href="#m3ebd5c3e68" x="88.251969" y="269.045" style="stroke: #000000; stroke-width: 0.8"/>
      </g>
     </g>
     <g id="text_10">
      <!-- 3 -->
      <g transform="translate(74.889469 272.844219) scale(0.1 -0.1)">
       <defs>
        <path id="DejaVuSans-33" d="M 2597 2516 
Q 3050 2419 3304 2112 
Q 3559 1806 3559 1356 
Q 3559 666 3084 287 
Q 2609 -91 1734 -91 
Q 1441 -91 1130 -33 
Q 819 25 488 141 
L 488 750 
Q 750 597 1062 519 
Q 1375 441 1716 441 
Q 2309 441 2620 675 
Q 2931 909 2931 1356 
Q 2931 1769 2642 2001 
Q 2353 2234 1838 2234 
L 1294 2234 
L 1294 2753 
L 1863 2753 
Q 2328 2753 2575 2939 
Q 2822 3125 2822 3475 
Q 2822 3834 2567 4026 
Q 2313 4219 1838 4219 
Q 1578 4219 1281 4162 
Q 984 4106 628 3988 
L 628 4550 
Q 988 4650 1302 4700 
Q 1616 4750 1894 4750 
Q 2613 4750 3031 4423 
Q 3450 4097 3450 3541 
Q 3450 3153 3228 2886 
Q 3006 2619 2597 2516 
z
" transform="scale(0.015625)"/>
       </defs>
       <use xlink:href="#DejaVuSans-33"/>
      </g>
     </g>
    </g>
    <g id="ytick_2">
     <g id="line2d_10">
      <g>
       <use xlink:href="#m3ebd5c3e68" x="88.251969" y="199.855" style="stroke: #000000; stroke-width: 0.8"/>
      </g>
     </g>
     <g id="text_11">
      <!-- 6 -->
      <g transform="translate(74.889469 203.654219) scale(0.1 -0.1)">
       <use xlink:href="#DejaVuSans-36"/>
      </g>
     </g>
    </g>
    <g id="ytick_3">
     <g id="line2d_11">
      <g>
       <use xlink:href="#m3ebd5c3e68" x="88.251969" y="130.665" style="stroke: #000000; stroke-width: 0.8"/>
      </g>
     </g>
     <g id="text_12">
      <!-- 10 -->
      <g transform="translate(68.526969 134.464219) scale(0.1 -0.1)">
       <use xlink:href="#DejaVuSans-31"/>
       <use xlink:href="#DejaVuSans-30" transform="translate(63.623047 0)"/>
      </g>
     </g>
    </g>
    <g id="ytick_4">
     <g id="line2d_12">
      <g>
       <use xlink:href="#m3ebd5c3e68" x="88.251969" y="61.475" style="stroke: #000000; stroke-width: 0.8"/>
      </g>
     </g>
     <g id="text_13">
      <!-- 19 -->
      <g transform="translate(68.526969 65.274219) scale(0.1 -0.1)">
       <defs>
        <path id="DejaVuSans-39" d="M 703 97 
L 703 672 
Q 941 559 1184 500 
Q 1428 441 1663 441 
Q 2288 441 2617 861 
Q 2947 1281 2994 2138 
Q 2813 1869 2534 1725 
Q 2256 1581 1919 1581 
Q 1219 1581 811 2004 
Q 403 2428 403 3163 
Q 403 3881 828 4315 
Q 1253 4750 1959 4750 
Q 2769 4750 3195 4129 
Q 3622 3509 3622 2328 
Q 3622 1225 3098 567 
Q 2575 -91 1691 -91 
Q 1453 -91 1209 -44 
Q 966 3 703 97 
z
M 1959 2075 
Q 2384 2075 2632 2365 
Q 2881 2656 2881 3163 
Q 2881 3666 2632 3958 
Q 2384 4250 1959 4250 
Q 1534 4250 1286 3958 
Q 1038 3666 1038 3163 
Q 1038 2656 1286 2365 
Q 1534 2075 1959 2075 
z
" transform="scale(0.015625)"/>
       </defs>
       <use xlink:href="#DejaVuSans-31"/>
       <use xlink:href="#DejaVuSans-39" transform="translate(63.623047 0)"/>
      </g>
     </g>
    </g>
   </g>
   <g id="line2d_13">
    <path d="M 159.072342 284.61275 
L 159.072342 253.47725 
L 209.699696 253.47725 
L 209.699696 284.61275 
L 159.072342 284.61275 
" clip-path="url(#p71a2a411b7)" style="fill: none; stroke: #000000; stroke-linecap: square"/>
   </g>
   <g id="line2d_14">
    <path d="M 159.072342 269.045 
L 143.271055 269.045 
" clip-path="url(#p71a2a411b7)" style="fill: none; stroke: #000000; stroke-linecap: square"/>
   </g>
   <g id="line2d_15">
    <path d="M 209.699696 269.045 
L 279.497275 269.045 
" clip-path="url(#p71a2a411b7)" style="fill: none; stroke: #000000; stroke-linecap: square"/>
   </g>
   <g id="line2d_16">
    <path d="M 143.271055 276.828875 
L 143.271055 261.261125 
" clip-path="url(#p71a2a411b7)" style="fill: none; stroke: #000000; stroke-linecap: square"/>
   </g>
   <g id="line2d_17">
    <path d="M 279.497275 276.828875 
L 279.497275 261.261125 
" clip-path="url(#p71a2a411b7)" style="fill: none; stroke: #000000; stroke-linecap: square"/>
   </g>
   <g id="line2d_18">
    <defs>
     <path id="m50f2ad3a13" d="M 0 3 
C 0.795609 3 1.55874 2.683901 2.12132 2.12132 
C 2.683901 1.55874 3 0.795609 3 0 
C 3 -0.795609 2.683901 -1.55874 2.12132 -2.12132 
C 1.55874 -2.683901 0.795609 -3 0 -3 
C -0.795609 -3 -1.55874 -2.683901 -2.12132 -2.12132 
C -2.683901 -1.55874 -3 -0.795609 -3 0 
C -3 0.795609 -2.683901 1.55874 -2.12132 2.12132 
C -1.55874 2.683901 -0.795609 3 0 3 
z
" style="stroke: #000000"/>
    </defs>
    <g clip-path="url(#p71a2a411b7)">
     <use xlink:href="#m50f2ad3a13" x="425.80536" y="269.045" style="fill-opacity: 0; stroke: #000000"/>
     <use xlink:href="#m50f2ad3a13" x="530.661136" y="269.045" style="fill-opacity: 0; stroke: #000000"/>
     <use xlink:href="#m50f2ad3a13" x="381.039433" y="269.045" style="fill-opacity: 0; stroke: #000000"/>
     <use xlink:href="#m50f2ad3a13" x="688.846649" y="269.045" style="fill-opacity: 0; stroke: #000000"/>
     <use xlink:href="#m50f2ad3a13" x="286.273116" y="269.045" style="fill-opacity: 0; stroke: #000000"/>
     <use xlink:href="#m50f2ad3a13" x="286.617332" y="269.045" style="fill-opacity: 0; stroke: #000000"/>
    </g>
   </g>
   <g id="line2d_19">
    <path d="M 159.496962 215.42275 
L 159.496962 184.28725 
L 207.894553 184.28725 
L 207.894553 215.42275 
L 159.496962 215.42275 
" clip-path="url(#p71a2a411b7)" style="fill: none; stroke: #000000; stroke-linecap: square"/>
   </g>
   <g id="line2d_20">
    <path d="M 159.496962 199.855 
L 143.272502 199.855 
" clip-path="url(#p71a2a411b7)" style="fill: none; stroke: #000000; stroke-linecap: square"/>
   </g>
   <g id="line2d_21">
    <path d="M 207.894553 199.855 
L 260.50178 199.855 
" clip-path="url(#p71a2a411b7)" style="fill: none; stroke: #000000; stroke-linecap: square"/>
   </g>
   <g id="line2d_22">
    <path d="M 143.272502 207.638875 
L 143.272502 192.071125 
" clip-path="url(#p71a2a411b7)" style="fill: none; stroke: #000000; stroke-linecap: square"/>
   </g>
   <g id="line2d_23">
    <path d="M 260.50178 207.638875 
L 260.50178 192.071125 
" clip-path="url(#p71a2a411b7)" style="fill: none; stroke: #000000; stroke-linecap: square"/>
   </g>
   <g id="line2d_24">
    <g clip-path="url(#p71a2a411b7)">
     <use xlink:href="#m50f2ad3a13" x="616.699672" y="199.855" style="fill-opacity: 0; stroke: #000000"/>
     <use xlink:href="#m50f2ad3a13" x="664.759511" y="199.855" style="fill-opacity: 0; stroke: #000000"/>
     <use xlink:href="#m50f2ad3a13" x="627.793936" y="199.855" style="fill-opacity: 0; stroke: #000000"/>
     <use xlink:href="#m50f2ad3a13" x="501.395036" y="199.855" style="fill-opacity: 0; stroke: #000000"/>
     <use xlink:href="#m50f2ad3a13" x="848.117416" y="199.855" style="fill-opacity: 0; stroke: #000000"/>
     <use xlink:href="#m50f2ad3a13" x="373.995126" y="199.855" style="fill-opacity: 0; stroke: #000000"/>
     <use xlink:href="#m50f2ad3a13" x="809.688202" y="199.855" style="fill-opacity: 0; stroke: #000000"/>
     <use xlink:href="#m50f2ad3a13" x="428.924814" y="199.855" style="fill-opacity: 0; stroke: #000000"/>
     <use xlink:href="#m50f2ad3a13" x="431.838173" y="199.855" style="fill-opacity: 0; stroke: #000000"/>
     <use xlink:href="#m50f2ad3a13" x="545.432939" y="199.855" style="fill-opacity: 0; stroke: #000000"/>
     <use xlink:href="#m50f2ad3a13" x="340.205772" y="199.855" style="fill-opacity: 0; stroke: #000000"/>
     <use xlink:href="#m50f2ad3a13" x="897.184231" y="199.855" style="fill-opacity: 0; stroke: #000000"/>
     <use xlink:href="#m50f2ad3a13" x="409.999103" y="199.855" style="fill-opacity: 0; stroke: #000000"/>
     <use xlink:href="#m50f2ad3a13" x="324.066869" y="199.855" style="fill-opacity: 0; stroke: #000000"/>
     <use xlink:href="#m50f2ad3a13" x="303.080926" y="199.855" style="fill-opacity: 0; stroke: #000000"/>
     <use xlink:href="#m50f2ad3a13" x="333.378407" y="199.855" style="fill-opacity: 0; stroke: #000000"/>
     <use xlink:href="#m50f2ad3a13" x="295.743023" y="199.855" style="fill-opacity: 0; stroke: #000000"/>
     <use xlink:href="#m50f2ad3a13" x="619.067781" y="199.855" style="fill-opacity: 0; stroke: #000000"/>
     <use xlink:href="#m50f2ad3a13" x="502.641552" y="199.855" style="fill-opacity: 0; stroke: #000000"/>
     <use xlink:href="#m50f2ad3a13" x="328.690639" y="199.855" style="fill-opacity: 0; stroke: #000000"/>
     <use xlink:href="#m50f2ad3a13" x="495.826119" y="199.855" style="fill-opacity: 0; stroke: #000000"/>
    </g>
   </g>
   <g id="line2d_25">
    <path d="M 157.212465 146.23275 
L 157.212465 115.09725 
L 203.114494 115.09725 
L 203.114494 146.23275 
L 157.212465 146.23275 
" clip-path="url(#p71a2a411b7)" style="fill: none; stroke: #000000; stroke-linecap: square"/>
   </g>
   <g id="line2d_26">
    <path d="M 157.212465 130.665 
L 143.274129 130.665 
" clip-path="url(#p71a2a411b7)" style="fill: none; stroke: #000000; stroke-linecap: square"/>
   </g>
   <g id="line2d_27">
    <path d="M 203.114494 130.665 
L 261.261622 130.665 
" clip-path="url(#p71a2a411b7)" style="fill: none; stroke: #000000; stroke-linecap: square"/>
   </g>
   <g id="line2d_28">
    <path d="M 143.274129 138.448875 
L 143.274129 122.881125 
" clip-path="url(#p71a2a411b7)" style="fill: none; stroke: #000000; stroke-linecap: square"/>
   </g>
   <g id="line2d_29">
    <path d="M 261.261622 138.448875 
L 261.261622 122.881125 
" clip-path="url(#p71a2a411b7)" style="fill: none; stroke: #000000; stroke-linecap: square"/>
   </g>
   <g id="line2d_30">
    <g clip-path="url(#p71a2a411b7)">
     <use xlink:href="#m50f2ad3a13" x="795.077118" y="130.665" style="fill-opacity: 0; stroke: #000000"/>
     <use xlink:href="#m50f2ad3a13" x="827.988396" y="130.665" style="fill-opacity: 0; stroke: #000000"/>
     <use xlink:href="#m50f2ad3a13" x="399.763389" y="130.665" style="fill-opacity: 0; stroke: #000000"/>
     <use xlink:href="#m50f2ad3a13" x="312.55029" y="130.665" style="fill-opacity: 0; stroke: #000000"/>
     <use xlink:href="#m50f2ad3a13" x="812.826096" y="130.665" style="fill-opacity: 0; stroke: #000000"/>
     <use xlink:href="#m50f2ad3a13" x="354.791185" y="130.665" style="fill-opacity: 0; stroke: #000000"/>
     <use xlink:href="#m50f2ad3a13" x="383.282258" y="130.665" style="fill-opacity: 0; stroke: #000000"/>
     <use xlink:href="#m50f2ad3a13" x="499.584288" y="130.665" style="fill-opacity: 0; stroke: #000000"/>
     <use xlink:href="#m50f2ad3a13" x="306.669156" y="130.665" style="fill-opacity: 0; stroke: #000000"/>
     <use xlink:href="#m50f2ad3a13" x="336.246931" y="130.665" style="fill-opacity: 0; stroke: #000000"/>
     <use xlink:href="#m50f2ad3a13" x="659.952062" y="130.665" style="fill-opacity: 0; stroke: #000000"/>
     <use xlink:href="#m50f2ad3a13" x="615.697939" y="130.665" style="fill-opacity: 0; stroke: #000000"/>
     <use xlink:href="#m50f2ad3a13" x="360.446156" y="130.665" style="fill-opacity: 0; stroke: #000000"/>
     <use xlink:href="#m50f2ad3a13" x="282.997463" y="130.665" style="fill-opacity: 0; stroke: #000000"/>
     <use xlink:href="#m50f2ad3a13" x="423.918864" y="130.665" style="fill-opacity: 0; stroke: #000000"/>
     <use xlink:href="#m50f2ad3a13" x="388.371009" y="130.665" style="fill-opacity: 0; stroke: #000000"/>
     <use xlink:href="#m50f2ad3a13" x="432.117848" y="130.665" style="fill-opacity: 0; stroke: #000000"/>
     <use xlink:href="#m50f2ad3a13" x="303.704997" y="130.665" style="fill-opacity: 0; stroke: #000000"/>
     <use xlink:href="#m50f2ad3a13" x="303.343968" y="130.665" style="fill-opacity: 0; stroke: #000000"/>
     <use xlink:href="#m50f2ad3a13" x="285.273734" y="130.665" style="fill-opacity: 0; stroke: #000000"/>
     <use xlink:href="#m50f2ad3a13" x="784.570587" y="130.665" style="fill-opacity: 0; stroke: #000000"/>
     <use xlink:href="#m50f2ad3a13" x="454.949431" y="130.665" style="fill-opacity: 0; stroke: #000000"/>
     <use xlink:href="#m50f2ad3a13" x="545.278368" y="130.665" style="fill-opacity: 0; stroke: #000000"/>
     <use xlink:href="#m50f2ad3a13" x="430.795402" y="130.665" style="fill-opacity: 0; stroke: #000000"/>
     <use xlink:href="#m50f2ad3a13" x="369.979157" y="130.665" style="fill-opacity: 0; stroke: #000000"/>
     <use xlink:href="#m50f2ad3a13" x="322.739903" y="130.665" style="fill-opacity: 0; stroke: #000000"/>
     <use xlink:href="#m50f2ad3a13" x="402.119205" y="130.665" style="fill-opacity: 0; stroke: #000000"/>
     <use xlink:href="#m50f2ad3a13" x="657.593173" y="130.665" style="fill-opacity: 0; stroke: #000000"/>
     <use xlink:href="#m50f2ad3a13" x="355.400071" y="130.665" style="fill-opacity: 0; stroke: #000000"/>
     <use xlink:href="#m50f2ad3a13" x="360.677562" y="130.665" style="fill-opacity: 0; stroke: #000000"/>
    </g>
   </g>
   <g id="line2d_31">
    <path d="M 154.364009 77.04275 
L 154.364009 45.90725 
L 203.315437 45.90725 
L 203.315437 77.04275 
L 154.364009 77.04275 
" clip-path="url(#p71a2a411b7)" style="fill: none; stroke: #000000; stroke-linecap: square"/>
   </g>
   <g id="line2d_32">
    <path d="M 154.364009 61.475 
L 143.273406 61.475 
" clip-path="url(#p71a2a411b7)" style="fill: none; stroke: #000000; stroke-linecap: square"/>
   </g>
   <g id="line2d_33">
    <path d="M 203.315437 61.475 
L 269.59041 61.475 
" clip-path="url(#p71a2a411b7)" style="fill: none; stroke: #000000; stroke-linecap: square"/>
   </g>
   <g id="line2d_34">
    <path d="M 143.273406 69.258875 
L 143.273406 53.691125 
" clip-path="url(#p71a2a411b7)" style="fill: none; stroke: #000000; stroke-linecap: square"/>
   </g>
   <g id="line2d_35">
    <path d="M 269.59041 69.258875 
L 269.59041 53.691125 
" clip-path="url(#p71a2a411b7)" style="fill: none; stroke: #000000; stroke-linecap: square"/>
   </g>
   <g id="line2d_36">
    <g clip-path="url(#p71a2a411b7)">
     <use xlink:href="#m50f2ad3a13" x="643.142806" y="61.475" style="fill-opacity: 0; stroke: #000000"/>
     <use xlink:href="#m50f2ad3a13" x="608.855388" y="61.475" style="fill-opacity: 0; stroke: #000000"/>
     <use xlink:href="#m50f2ad3a13" x="554.809018" y="61.475" style="fill-opacity: 0; stroke: #000000"/>
     <use xlink:href="#m50f2ad3a13" x="448.667857" y="61.475" style="fill-opacity: 0; stroke: #000000"/>
     <use xlink:href="#m50f2ad3a13" x="316.33395" y="61.475" style="fill-opacity: 0; stroke: #000000"/>
     <use xlink:href="#m50f2ad3a13" x="456.682802" y="61.475" style="fill-opacity: 0; stroke: #000000"/>
     <use xlink:href="#m50f2ad3a13" x="369.712317" y="61.475" style="fill-opacity: 0; stroke: #000000"/>
     <use xlink:href="#m50f2ad3a13" x="457.008216" y="61.475" style="fill-opacity: 0; stroke: #000000"/>
     <use xlink:href="#m50f2ad3a13" x="970.708251" y="61.475" style="fill-opacity: 0; stroke: #000000"/>
     <use xlink:href="#m50f2ad3a13" x="296.319367" y="61.475" style="fill-opacity: 0; stroke: #000000"/>
     <use xlink:href="#m50f2ad3a13" x="884.925346" y="61.475" style="fill-opacity: 0; stroke: #000000"/>
     <use xlink:href="#m50f2ad3a13" x="1167.953195" y="61.475" style="fill-opacity: 0; stroke: #000000"/>
     <use xlink:href="#m50f2ad3a13" x="710.376214" y="61.475" style="fill-opacity: 0; stroke: #000000"/>
     <use xlink:href="#m50f2ad3a13" x="615.464364" y="61.475" style="fill-opacity: 0; stroke: #000000"/>
     <use xlink:href="#m50f2ad3a13" x="299.936523" y="61.475" style="fill-opacity: 0; stroke: #000000"/>
     <use xlink:href="#m50f2ad3a13" x="430.24039" y="61.475" style="fill-opacity: 0; stroke: #000000"/>
     <use xlink:href="#m50f2ad3a13" x="1243.652788" y="61.475" style="fill-opacity: 0; stroke: #000000"/>
     <use xlink:href="#m50f2ad3a13" x="429.502605" y="61.475" style="fill-opacity: 0; stroke: #000000"/>
     <use xlink:href="#m50f2ad3a13" x="277.550758" y="61.475" style="fill-opacity: 0; stroke: #000000"/>
     <use xlink:href="#m50f2ad3a13" x="408.560773" y="61.475" style="fill-opacity: 0; stroke: #000000"/>
     <use xlink:href="#m50f2ad3a13" x="492.52841" y="61.475" style="fill-opacity: 0; stroke: #000000"/>
     <use xlink:href="#m50f2ad3a13" x="833.899902" y="61.475" style="fill-opacity: 0; stroke: #000000"/>
     <use xlink:href="#m50f2ad3a13" x="343.680289" y="61.475" style="fill-opacity: 0; stroke: #000000"/>
     <use xlink:href="#m50f2ad3a13" x="618.346628" y="61.475" style="fill-opacity: 0; stroke: #000000"/>
     <use xlink:href="#m50f2ad3a13" x="837.929249" y="61.475" style="fill-opacity: 0; stroke: #000000"/>
     <use xlink:href="#m50f2ad3a13" x="471.250679" y="61.475" style="fill-opacity: 0; stroke: #000000"/>
     <use xlink:href="#m50f2ad3a13" x="1090.869689" y="61.475" style="fill-opacity: 0; stroke: #000000"/>
     <use xlink:href="#m50f2ad3a13" x="530.885491" y="61.475" style="fill-opacity: 0; stroke: #000000"/>
     <use xlink:href="#m50f2ad3a13" x="464.360943" y="61.475" style="fill-opacity: 0; stroke: #000000"/>
     <use xlink:href="#m50f2ad3a13" x="475.28075" y="61.475" style="fill-opacity: 0; stroke: #000000"/>
     <use xlink:href="#m50f2ad3a13" x="333.208469" y="61.475" style="fill-opacity: 0; stroke: #000000"/>
     <use xlink:href="#m50f2ad3a13" x="713.460776" y="61.475" style="fill-opacity: 0; stroke: #000000"/>
     <use xlink:href="#m50f2ad3a13" x="578.513976" y="61.475" style="fill-opacity: 0; stroke: #000000"/>
     <use xlink:href="#m50f2ad3a13" x="365.912748" y="61.475" style="fill-opacity: 0; stroke: #000000"/>
     <use xlink:href="#m50f2ad3a13" x="1012.151521" y="61.475" style="fill-opacity: 0; stroke: #000000"/>
     <use xlink:href="#m50f2ad3a13" x="466.127037" y="61.475" style="fill-opacity: 0; stroke: #000000"/>
     <use xlink:href="#m50f2ad3a13" x="644.660139" y="61.475" style="fill-opacity: 0; stroke: #000000"/>
     <use xlink:href="#m50f2ad3a13" x="368.138941" y="61.475" style="fill-opacity: 0; stroke: #000000"/>
     <use xlink:href="#m50f2ad3a13" x="325.088849" y="61.475" style="fill-opacity: 0; stroke: #000000"/>
     <use xlink:href="#m50f2ad3a13" x="576.783497" y="61.475" style="fill-opacity: 0; stroke: #000000"/>
     <use xlink:href="#m50f2ad3a13" x="320.05108" y="61.475" style="fill-opacity: 0; stroke: #000000"/>
     <use xlink:href="#m50f2ad3a13" x="452.411383" y="61.475" style="fill-opacity: 0; stroke: #000000"/>
     <use xlink:href="#m50f2ad3a13" x="644.584209" y="61.475" style="fill-opacity: 0; stroke: #000000"/>
     <use xlink:href="#m50f2ad3a13" x="557.569794" y="61.475" style="fill-opacity: 0; stroke: #000000"/>
     <use xlink:href="#m50f2ad3a13" x="651.30021" y="61.475" style="fill-opacity: 0; stroke: #000000"/>
     <use xlink:href="#m50f2ad3a13" x="492.981278" y="61.475" style="fill-opacity: 0; stroke: #000000"/>
     <use xlink:href="#m50f2ad3a13" x="441.159654" y="61.475" style="fill-opacity: 0; stroke: #000000"/>
     <use xlink:href="#m50f2ad3a13" x="904.651757" y="61.475" style="fill-opacity: 0; stroke: #000000"/>
     <use xlink:href="#m50f2ad3a13" x="528.676654" y="61.475" style="fill-opacity: 0; stroke: #000000"/>
     <use xlink:href="#m50f2ad3a13" x="655.505462" y="61.475" style="fill-opacity: 0; stroke: #000000"/>
     <use xlink:href="#m50f2ad3a13" x="457.314467" y="61.475" style="fill-opacity: 0; stroke: #000000"/>
     <use xlink:href="#m50f2ad3a13" x="476.667013" y="61.475" style="fill-opacity: 0; stroke: #000000"/>
     <use xlink:href="#m50f2ad3a13" x="684.526056" y="61.475" style="fill-opacity: 0; stroke: #000000"/>
     <use xlink:href="#m50f2ad3a13" x="605.55768" y="61.475" style="fill-opacity: 0; stroke: #000000"/>
     <use xlink:href="#m50f2ad3a13" x="447.200602" y="61.475" style="fill-opacity: 0; stroke: #000000"/>
     <use xlink:href="#m50f2ad3a13" x="567.264959" y="61.475" style="fill-opacity: 0; stroke: #000000"/>
    </g>
   </g>
   <g id="line2d_37">
    <path d="M 184.850818 284.61275 
L 184.850818 253.47725 
" clip-path="url(#p71a2a411b7)" style="fill: none; stroke: #ff7f0e"/>
   </g>
   <g id="line2d_38">
    <path d="M 182.560808 215.42275 
L 182.560808 184.28725 
" clip-path="url(#p71a2a411b7)" style="fill: none; stroke: #ff7f0e"/>
   </g>
   <g id="line2d_39">
    <path d="M 177.778037 146.23275 
L 177.778037 115.09725 
" clip-path="url(#p71a2a411b7)" style="fill: none; stroke: #ff7f0e"/>
   </g>
   <g id="line2d_40">
    <path d="M 178.393341 77.04275 
L 178.393341 45.90725 
" clip-path="url(#p71a2a411b7)" style="fill: none; stroke: #ff7f0e"/>
   </g>
   <g id="patch_3">
    <path d="M 88.251969 303.64 
L 88.251969 26.88 
" style="fill: none; stroke: #000000; stroke-width: 0.8; stroke-linejoin: miter; stroke-linecap: square"/>
   </g>
   <g id="patch_4">
    <path d="M 1298.671875 303.64 
L 1298.671875 26.88 
" style="fill: none; stroke: #000000; stroke-width: 0.8; stroke-linejoin: miter; stroke-linecap: square"/>
   </g>
   <g id="patch_5">
    <path d="M 88.251969 303.64 
L 1298.671875 303.64 
" style="fill: none; stroke: #000000; stroke-width: 0.8; stroke-linejoin: miter; stroke-linecap: square"/>
   </g>
   <g id="patch_6">
    <path d="M 88.251969 26.88 
L 1298.671875 26.88 
" style="fill: none; stroke: #000000; stroke-width: 0.8; stroke-linejoin: miter; stroke-linecap: square"/>
   </g>
   <g id="text_14">
    <!-- SEL Execution Times for X Robots (warm start) -->
    <g transform="translate(553.589734 20.88) scale(0.12 -0.12)">
     <defs>
      <path id="DejaVuSans-45" d="M 628 4666 
L 3578 4666 
L 3578 4134 
L 1259 4134 
L 1259 2753 
L 3481 2753 
L 3481 2222 
L 1259 2222 
L 1259 531 
L 3634 531 
L 3634 0 
L 628 0 
L 628 4666 
z
" transform="scale(0.015625)"/>
      <path id="DejaVuSans-4c" d="M 628 4666 
L 1259 4666 
L 1259 531 
L 3531 531 
L 3531 0 
L 628 0 
L 628 4666 
z
" transform="scale(0.015625)"/>
      <path id="DejaVuSans-20" transform="scale(0.015625)"/>
      <path id="DejaVuSans-78" d="M 3513 3500 
L 2247 1797 
L 3578 0 
L 2900 0 
L 1881 1375 
L 863 0 
L 184 0 
L 1544 1831 
L 300 3500 
L 978 3500 
L 1906 2253 
L 2834 3500 
L 3513 3500 
z
" transform="scale(0.015625)"/>
      <path id="DejaVuSans-75" d="M 544 1381 
L 544 3500 
L 1119 3500 
L 1119 1403 
Q 1119 906 1312 657 
Q 1506 409 1894 409 
Q 2359 409 2629 706 
Q 2900 1003 2900 1516 
L 2900 3500 
L 3475 3500 
L 3475 0 
L 2900 0 
L 2900 538 
Q 2691 219 2414 64 
Q 2138 -91 1772 -91 
Q 1169 -91 856 284 
Q 544 659 544 1381 
z
M 1991 3584 
L 1991 3584 
z
" transform="scale(0.015625)"/>
      <path id="DejaVuSans-74" d="M 1172 4494 
L 1172 3500 
L 2356 3500 
L 2356 3053 
L 1172 3053 
L 1172 1153 
Q 1172 725 1289 603 
Q 1406 481 1766 481 
L 2356 481 
L 2356 0 
L 1766 0 
Q 1100 0 847 248 
Q 594 497 594 1153 
L 594 3053 
L 172 3053 
L 172 3500 
L 594 3500 
L 594 4494 
L 1172 4494 
z
" transform="scale(0.015625)"/>
      <path id="DejaVuSans-69" d="M 603 3500 
L 1178 3500 
L 1178 0 
L 603 0 
L 603 3500 
z
M 603 4863 
L 1178 4863 
L 1178 4134 
L 603 4134 
L 603 4863 
z
" transform="scale(0.015625)"/>
      <path id="DejaVuSans-54" d="M -19 4666 
L 3928 4666 
L 3928 4134 
L 2272 4134 
L 2272 0 
L 1638 0 
L 1638 4134 
L -19 4134 
L -19 4666 
z
" transform="scale(0.015625)"/>
      <path id="DejaVuSans-6d" d="M 3328 2828 
Q 3544 3216 3844 3400 
Q 4144 3584 4550 3584 
Q 5097 3584 5394 3201 
Q 5691 2819 5691 2113 
L 5691 0 
L 5113 0 
L 5113 2094 
Q 5113 2597 4934 2840 
Q 4756 3084 4391 3084 
Q 3944 3084 3684 2787 
Q 3425 2491 3425 1978 
L 3425 0 
L 2847 0 
L 2847 2094 
Q 2847 2600 2669 2842 
Q 2491 3084 2119 3084 
Q 1678 3084 1418 2786 
Q 1159 2488 1159 1978 
L 1159 0 
L 581 0 
L 581 3500 
L 1159 3500 
L 1159 2956 
Q 1356 3278 1631 3431 
Q 1906 3584 2284 3584 
Q 2666 3584 2933 3390 
Q 3200 3197 3328 2828 
z
" transform="scale(0.015625)"/>
      <path id="DejaVuSans-66" d="M 2375 4863 
L 2375 4384 
L 1825 4384 
Q 1516 4384 1395 4259 
Q 1275 4134 1275 3809 
L 1275 3500 
L 2222 3500 
L 2222 3053 
L 1275 3053 
L 1275 0 
L 697 0 
L 697 3053 
L 147 3053 
L 147 3500 
L 697 3500 
L 697 3744 
Q 697 4328 969 4595 
Q 1241 4863 1831 4863 
L 2375 4863 
z
" transform="scale(0.015625)"/>
      <path id="DejaVuSans-72" d="M 2631 2963 
Q 2534 3019 2420 3045 
Q 2306 3072 2169 3072 
Q 1681 3072 1420 2755 
Q 1159 2438 1159 1844 
L 1159 0 
L 581 0 
L 581 3500 
L 1159 3500 
L 1159 2956 
Q 1341 3275 1631 3429 
Q 1922 3584 2338 3584 
Q 2397 3584 2469 3576 
Q 2541 3569 2628 3553 
L 2631 2963 
z
" transform="scale(0.015625)"/>
      <path id="DejaVuSans-58" d="M 403 4666 
L 1081 4666 
L 2241 2931 
L 3406 4666 
L 4084 4666 
L 2584 2425 
L 4184 0 
L 3506 0 
L 2194 1984 
L 872 0 
L 191 0 
L 1856 2491 
L 403 4666 
z
" transform="scale(0.015625)"/>
      <path id="DejaVuSans-52" d="M 2841 2188 
Q 3044 2119 3236 1894 
Q 3428 1669 3622 1275 
L 4263 0 
L 3584 0 
L 2988 1197 
Q 2756 1666 2539 1819 
Q 2322 1972 1947 1972 
L 1259 1972 
L 1259 0 
L 628 0 
L 628 4666 
L 2053 4666 
Q 2853 4666 3247 4331 
Q 3641 3997 3641 3322 
Q 3641 2881 3436 2590 
Q 3231 2300 2841 2188 
z
M 1259 4147 
L 1259 2491 
L 2053 2491 
Q 2509 2491 2742 2702 
Q 2975 2913 2975 3322 
Q 2975 3731 2742 3939 
Q 2509 4147 2053 4147 
L 1259 4147 
z
" transform="scale(0.015625)"/>
      <path id="DejaVuSans-62" d="M 3116 1747 
Q 3116 2381 2855 2742 
Q 2594 3103 2138 3103 
Q 1681 3103 1420 2742 
Q 1159 2381 1159 1747 
Q 1159 1113 1420 752 
Q 1681 391 2138 391 
Q 2594 391 2855 752 
Q 3116 1113 3116 1747 
z
M 1159 2969 
Q 1341 3281 1617 3432 
Q 1894 3584 2278 3584 
Q 2916 3584 3314 3078 
Q 3713 2572 3713 1747 
Q 3713 922 3314 415 
Q 2916 -91 2278 -91 
Q 1894 -91 1617 61 
Q 1341 213 1159 525 
L 1159 0 
L 581 0 
L 581 4863 
L 1159 4863 
L 1159 2969 
z
" transform="scale(0.015625)"/>
      <path id="DejaVuSans-28" d="M 1984 4856 
Q 1566 4138 1362 3434 
Q 1159 2731 1159 2009 
Q 1159 1288 1364 580 
Q 1569 -128 1984 -844 
L 1484 -844 
Q 1016 -109 783 600 
Q 550 1309 550 2009 
Q 550 2706 781 3412 
Q 1013 4119 1484 4856 
L 1984 4856 
z
" transform="scale(0.015625)"/>
      <path id="DejaVuSans-77" d="M 269 3500 
L 844 3500 
L 1563 769 
L 2278 3500 
L 2956 3500 
L 3675 769 
L 4391 3500 
L 4966 3500 
L 4050 0 
L 3372 0 
L 2619 2869 
L 1863 0 
L 1184 0 
L 269 3500 
z
" transform="scale(0.015625)"/>
      <path id="DejaVuSans-61" d="M 2194 1759 
Q 1497 1759 1228 1600 
Q 959 1441 959 1056 
Q 959 750 1161 570 
Q 1363 391 1709 391 
Q 2188 391 2477 730 
Q 2766 1069 2766 1631 
L 2766 1759 
L 2194 1759 
z
M 3341 1997 
L 3341 0 
L 2766 0 
L 2766 531 
Q 2569 213 2275 61 
Q 1981 -91 1556 -91 
Q 1019 -91 701 211 
Q 384 513 384 1019 
Q 384 1609 779 1909 
Q 1175 2209 1959 2209 
L 2766 2209 
L 2766 2266 
Q 2766 2663 2505 2880 
Q 2244 3097 1772 3097 
Q 1472 3097 1187 3025 
Q 903 2953 641 2809 
L 641 3341 
Q 956 3463 1253 3523 
Q 1550 3584 1831 3584 
Q 2591 3584 2966 3190 
Q 3341 2797 3341 1997 
z
" transform="scale(0.015625)"/>
      <path id="DejaVuSans-29" d="M 513 4856 
L 1013 4856 
Q 1481 4119 1714 3412 
Q 1947 2706 1947 2009 
Q 1947 1309 1714 600 
Q 1481 -109 1013 -844 
L 513 -844 
Q 928 -128 1133 580 
Q 1338 1288 1338 2009 
Q 1338 2731 1133 3434 
Q 928 4138 513 4856 
z
" transform="scale(0.015625)"/>
     </defs>
     <use xlink:href="#DejaVuSans-53"/>
     <use xlink:href="#DejaVuSans-45" transform="translate(63.476562 0)"/>
     <use xlink:href="#DejaVuSans-4c" transform="translate(126.660156 0)"/>
     <use xlink:href="#DejaVuSans-20" transform="translate(182.373047 0)"/>
     <use xlink:href="#DejaVuSans-45" transform="translate(214.160156 0)"/>
     <use xlink:href="#DejaVuSans-78" transform="translate(277.34375 0)"/>
     <use xlink:href="#DejaVuSans-65" transform="translate(333.398438 0)"/>
     <use xlink:href="#DejaVuSans-63" transform="translate(394.921875 0)"/>
     <use xlink:href="#DejaVuSans-75" transform="translate(449.902344 0)"/>
     <use xlink:href="#DejaVuSans-74" transform="translate(513.28125 0)"/>
     <use xlink:href="#DejaVuSans-69" transform="translate(552.490234 0)"/>
     <use xlink:href="#DejaVuSans-6f" transform="translate(580.273438 0)"/>
     <use xlink:href="#DejaVuSans-6e" transform="translate(641.455078 0)"/>
     <use xlink:href="#DejaVuSans-20" transform="translate(704.833984 0)"/>
     <use xlink:href="#DejaVuSans-54" transform="translate(736.621094 0)"/>
     <use xlink:href="#DejaVuSans-69" transform="translate(794.580078 0)"/>
     <use xlink:href="#DejaVuSans-6d" transform="translate(822.363281 0)"/>
     <use xlink:href="#DejaVuSans-65" transform="translate(919.775391 0)"/>
     <use xlink:href="#DejaVuSans-73" transform="translate(981.298828 0)"/>
     <use xlink:href="#DejaVuSans-20" transform="translate(1033.398438 0)"/>
     <use xlink:href="#DejaVuSans-66" transform="translate(1065.185547 0)"/>
     <use xlink:href="#DejaVuSans-6f" transform="translate(1100.390625 0)"/>
     <use xlink:href="#DejaVuSans-72" transform="translate(1161.572266 0)"/>
     <use xlink:href="#DejaVuSans-20" transform="translate(1202.685547 0)"/>
     <use xlink:href="#DejaVuSans-58" transform="translate(1234.472656 0)"/>
     <use xlink:href="#DejaVuSans-20" transform="translate(1302.978516 0)"/>
     <use xlink:href="#DejaVuSans-52" transform="translate(1334.765625 0)"/>
     <use xlink:href="#DejaVuSans-6f" transform="translate(1399.748047 0)"/>
     <use xlink:href="#DejaVuSans-62" transform="translate(1460.929688 0)"/>
     <use xlink:href="#DejaVuSans-6f" transform="translate(1524.40625 0)"/>
     <use xlink:href="#DejaVuSans-74" transform="translate(1585.587891 0)"/>
     <use xlink:href="#DejaVuSans-73" transform="translate(1624.796875 0)"/>
     <use xlink:href="#DejaVuSans-20" transform="translate(1676.896484 0)"/>
     <use xlink:href="#DejaVuSans-28" transform="translate(1708.683594 0)"/>
     <use xlink:href="#DejaVuSans-77" transform="translate(1747.697266 0)"/>
     <use xlink:href="#DejaVuSans-61" transform="translate(1829.484375 0)"/>
     <use xlink:href="#DejaVuSans-72" transform="translate(1890.763672 0)"/>
     <use xlink:href="#DejaVuSans-6d" transform="translate(1930.126953 0)"/>
     <use xlink:href="#DejaVuSans-20" transform="translate(2027.539062 0)"/>
     <use xlink:href="#DejaVuSans-73" transform="translate(2059.326172 0)"/>
     <use xlink:href="#DejaVuSans-74" transform="translate(2111.425781 0)"/>
     <use xlink:href="#DejaVuSans-61" transform="translate(2150.634766 0)"/>
     <use xlink:href="#DejaVuSans-72" transform="translate(2211.914062 0)"/>
     <use xlink:href="#DejaVuSans-74" transform="translate(2253.027344 0)"/>
     <use xlink:href="#DejaVuSans-29" transform="translate(2292.236328 0)"/>
    </g>
   </g>
  </g>
 </g>
 <defs>
  <clipPath id="p71a2a411b7">
   <rect x="88.251969" y="26.88" width="1210.419906" height="276.76"/>
  </clipPath>
 </defs>
</svg>
